<?xml version="1.0" encoding="utf-8" standalone="no"?>
<!DOCTYPE svg PUBLIC "-//W3C//DTD SVG 1.1//EN"
  "http://www.w3.org/Graphics/SVG/1.1/DTD/svg11.dtd">
<svg xmlns:xlink="http://www.w3.org/1999/xlink" width="864pt" height="288pt" viewBox="0 0 864 288" xmlns="http://www.w3.org/2000/svg" version="1.1">
 <metadata>
  <rdf:RDF xmlns:dc="http://purl.org/dc/elements/1.1/" xmlns:cc="http://creativecommons.org/ns#" xmlns:rdf="http://www.w3.org/1999/02/22-rdf-syntax-ns#">
   <cc:Work>
    <dc:type rdf:resource="http://purl.org/dc/dcmitype/StillImage"/>
    <dc:date>2025-03-11T14:38:26.253611</dc:date>
    <dc:format>image/svg+xml</dc:format>
    <dc:creator>
     <cc:Agent>
      <dc:title>Matplotlib v3.9.2, https://matplotlib.org/</dc:title>
     </cc:Agent>
    </dc:creator>
   </cc:Work>
  </rdf:RDF>
 </metadata>
 <defs>
  <style type="text/css">*{stroke-linejoin: round; stroke-linecap: butt}</style>
 </defs>
 <g id="figure_1">
  <g id="patch_1">
   <path d="M 0 288 
L 864 288 
L 864 0 
L 0 0 
z
" style="fill: #ffffff"/>
  </g>
  <g id="axes_1">
   <g id="patch_2">
    <path d="M 47.72 246.04 
L 418.725 246.04 
L 418.725 26.88 
L 47.72 26.88 
z
" style="fill: #ffffff"/>
   </g>
   <g id="matplotlib.axis_1">
    <g id="xtick_1">
     <g id="line2d_1">
      <path d="M 47.779077 246.04 
L 47.779077 26.88 
" clip-path="url(#p1af202c1ff)" style="fill: none; stroke: #d3d3d3; stroke-opacity: 0.7; stroke-width: 0.5; stroke-linecap: square"/>
     </g>
     <g id="line2d_2">
      <defs>
       <path id="mbb9f08e8fe" d="M 0 0 
L 0 3.5 
" style="stroke: #000000; stroke-width: 0.8"/>
      </defs>
      <g>
       <use xlink:href="#mbb9f08e8fe" x="47.779077" y="246.04" style="stroke: #000000; stroke-width: 0.8"/>
      </g>
     </g>
     <g id="text_1">
      <!-- 0 -->
      <g transform="translate(44.597827 260.638438) scale(0.1 -0.1)">
       <defs>
        <path id="DejaVuSans-30" d="M 2034 4250 
Q 1547 4250 1301 3770 
Q 1056 3291 1056 2328 
Q 1056 1369 1301 889 
Q 1547 409 2034 409 
Q 2525 409 2770 889 
Q 3016 1369 3016 2328 
Q 3016 3291 2770 3770 
Q 2525 4250 2034 4250 
z
M 2034 4750 
Q 2819 4750 3233 4129 
Q 3647 3509 3647 2328 
Q 3647 1150 3233 529 
Q 2819 -91 2034 -91 
Q 1250 -91 836 529 
Q 422 1150 422 2328 
Q 422 3509 836 4129 
Q 1250 4750 2034 4750 
z
" transform="scale(0.015625)"/>
       </defs>
       <use xlink:href="#DejaVuSans-30"/>
      </g>
     </g>
    </g>
    <g id="xtick_2">
     <g id="line2d_3">
      <path d="M 106.856307 246.04 
L 106.856307 26.88 
" clip-path="url(#p1af202c1ff)" style="fill: none; stroke: #d3d3d3; stroke-opacity: 0.7; stroke-width: 0.5; stroke-linecap: square"/>
     </g>
     <g id="line2d_4">
      <g>
       <use xlink:href="#mbb9f08e8fe" x="106.856307" y="246.04" style="stroke: #000000; stroke-width: 0.8"/>
      </g>
     </g>
     <g id="text_2">
      <!-- 50 -->
      <g transform="translate(100.493807 260.638438) scale(0.1 -0.1)">
       <defs>
        <path id="DejaVuSans-35" d="M 691 4666 
L 3169 4666 
L 3169 4134 
L 1269 4134 
L 1269 2991 
Q 1406 3038 1543 3061 
Q 1681 3084 1819 3084 
Q 2600 3084 3056 2656 
Q 3513 2228 3513 1497 
Q 3513 744 3044 326 
Q 2575 -91 1722 -91 
Q 1428 -91 1123 -41 
Q 819 9 494 109 
L 494 744 
Q 775 591 1075 516 
Q 1375 441 1709 441 
Q 2250 441 2565 725 
Q 2881 1009 2881 1497 
Q 2881 1984 2565 2268 
Q 2250 2553 1709 2553 
Q 1456 2553 1204 2497 
Q 953 2441 691 2322 
L 691 4666 
z
" transform="scale(0.015625)"/>
       </defs>
       <use xlink:href="#DejaVuSans-35"/>
       <use xlink:href="#DejaVuSans-30" x="63.623047"/>
      </g>
     </g>
    </g>
    <g id="xtick_3">
     <g id="line2d_5">
      <path d="M 165.933536 246.04 
L 165.933536 26.88 
" clip-path="url(#p1af202c1ff)" style="fill: none; stroke: #d3d3d3; stroke-opacity: 0.7; stroke-width: 0.5; stroke-linecap: square"/>
     </g>
     <g id="line2d_6">
      <g>
       <use xlink:href="#mbb9f08e8fe" x="165.933536" y="246.04" style="stroke: #000000; stroke-width: 0.8"/>
      </g>
     </g>
     <g id="text_3">
      <!-- 100 -->
      <g transform="translate(156.389786 260.638438) scale(0.1 -0.1)">
       <defs>
        <path id="DejaVuSans-31" d="M 794 531 
L 1825 531 
L 1825 4091 
L 703 3866 
L 703 4441 
L 1819 4666 
L 2450 4666 
L 2450 531 
L 3481 531 
L 3481 0 
L 794 0 
L 794 531 
z
" transform="scale(0.015625)"/>
       </defs>
       <use xlink:href="#DejaVuSans-31"/>
       <use xlink:href="#DejaVuSans-30" x="63.623047"/>
       <use xlink:href="#DejaVuSans-30" x="127.246094"/>
      </g>
     </g>
    </g>
    <g id="xtick_4">
     <g id="line2d_7">
      <path d="M 225.010765 246.04 
L 225.010765 26.88 
" clip-path="url(#p1af202c1ff)" style="fill: none; stroke: #d3d3d3; stroke-opacity: 0.7; stroke-width: 0.5; stroke-linecap: square"/>
     </g>
     <g id="line2d_8">
      <g>
       <use xlink:href="#mbb9f08e8fe" x="225.010765" y="246.04" style="stroke: #000000; stroke-width: 0.8"/>
      </g>
     </g>
     <g id="text_4">
      <!-- 150 -->
      <g transform="translate(215.467015 260.638438) scale(0.1 -0.1)">
       <use xlink:href="#DejaVuSans-31"/>
       <use xlink:href="#DejaVuSans-35" x="63.623047"/>
       <use xlink:href="#DejaVuSans-30" x="127.246094"/>
      </g>
     </g>
    </g>
    <g id="xtick_5">
     <g id="line2d_9">
      <path d="M 284.087994 246.04 
L 284.087994 26.88 
" clip-path="url(#p1af202c1ff)" style="fill: none; stroke: #d3d3d3; stroke-opacity: 0.7; stroke-width: 0.5; stroke-linecap: square"/>
     </g>
     <g id="line2d_10">
      <g>
       <use xlink:href="#mbb9f08e8fe" x="284.087994" y="246.04" style="stroke: #000000; stroke-width: 0.8"/>
      </g>
     </g>
     <g id="text_5">
      <!-- 200 -->
      <g transform="translate(274.544244 260.638438) scale(0.1 -0.1)">
       <defs>
        <path id="DejaVuSans-32" d="M 1228 531 
L 3431 531 
L 3431 0 
L 469 0 
L 469 531 
Q 828 903 1448 1529 
Q 2069 2156 2228 2338 
Q 2531 2678 2651 2914 
Q 2772 3150 2772 3378 
Q 2772 3750 2511 3984 
Q 2250 4219 1831 4219 
Q 1534 4219 1204 4116 
Q 875 4013 500 3803 
L 500 4441 
Q 881 4594 1212 4672 
Q 1544 4750 1819 4750 
Q 2544 4750 2975 4387 
Q 3406 4025 3406 3419 
Q 3406 3131 3298 2873 
Q 3191 2616 2906 2266 
Q 2828 2175 2409 1742 
Q 1991 1309 1228 531 
z
" transform="scale(0.015625)"/>
       </defs>
       <use xlink:href="#DejaVuSans-32"/>
       <use xlink:href="#DejaVuSans-30" x="63.623047"/>
       <use xlink:href="#DejaVuSans-30" x="127.246094"/>
      </g>
     </g>
    </g>
    <g id="xtick_6">
     <g id="line2d_11">
      <path d="M 343.165224 246.04 
L 343.165224 26.88 
" clip-path="url(#p1af202c1ff)" style="fill: none; stroke: #d3d3d3; stroke-opacity: 0.7; stroke-width: 0.5; stroke-linecap: square"/>
     </g>
     <g id="line2d_12">
      <g>
       <use xlink:href="#mbb9f08e8fe" x="343.165224" y="246.04" style="stroke: #000000; stroke-width: 0.8"/>
      </g>
     </g>
     <g id="text_6">
      <!-- 250 -->
      <g transform="translate(333.621474 260.638438) scale(0.1 -0.1)">
       <use xlink:href="#DejaVuSans-32"/>
       <use xlink:href="#DejaVuSans-35" x="63.623047"/>
       <use xlink:href="#DejaVuSans-30" x="127.246094"/>
      </g>
     </g>
    </g>
    <g id="xtick_7">
     <g id="line2d_13">
      <path d="M 402.242453 246.04 
L 402.242453 26.88 
" clip-path="url(#p1af202c1ff)" style="fill: none; stroke: #d3d3d3; stroke-opacity: 0.7; stroke-width: 0.5; stroke-linecap: square"/>
     </g>
     <g id="line2d_14">
      <g>
       <use xlink:href="#mbb9f08e8fe" x="402.242453" y="246.04" style="stroke: #000000; stroke-width: 0.8"/>
      </g>
     </g>
     <g id="text_7">
      <!-- 300 -->
      <g transform="translate(392.698703 260.638438) scale(0.1 -0.1)">
       <defs>
        <path id="DejaVuSans-33" d="M 2597 2516 
Q 3050 2419 3304 2112 
Q 3559 1806 3559 1356 
Q 3559 666 3084 287 
Q 2609 -91 1734 -91 
Q 1441 -91 1130 -33 
Q 819 25 488 141 
L 488 750 
Q 750 597 1062 519 
Q 1375 441 1716 441 
Q 2309 441 2620 675 
Q 2931 909 2931 1356 
Q 2931 1769 2642 2001 
Q 2353 2234 1838 2234 
L 1294 2234 
L 1294 2753 
L 1863 2753 
Q 2328 2753 2575 2939 
Q 2822 3125 2822 3475 
Q 2822 3834 2567 4026 
Q 2313 4219 1838 4219 
Q 1578 4219 1281 4162 
Q 984 4106 628 3988 
L 628 4550 
Q 988 4650 1302 4700 
Q 1616 4750 1894 4750 
Q 2613 4750 3031 4423 
Q 3450 4097 3450 3541 
Q 3450 3153 3228 2886 
Q 3006 2619 2597 2516 
z
" transform="scale(0.015625)"/>
       </defs>
       <use xlink:href="#DejaVuSans-33"/>
       <use xlink:href="#DejaVuSans-30" x="63.623047"/>
       <use xlink:href="#DejaVuSans-30" x="127.246094"/>
      </g>
     </g>
    </g>
    <g id="text_8">
     <!-- Time (Month) -->
     <g transform="translate(199.827187 274.316562) scale(0.1 -0.1)">
      <defs>
       <path id="DejaVuSans-54" d="M -19 4666 
L 3928 4666 
L 3928 4134 
L 2272 4134 
L 2272 0 
L 1638 0 
L 1638 4134 
L -19 4134 
L -19 4666 
z
" transform="scale(0.015625)"/>
       <path id="DejaVuSans-69" d="M 603 3500 
L 1178 3500 
L 1178 0 
L 603 0 
L 603 3500 
z
M 603 4863 
L 1178 4863 
L 1178 4134 
L 603 4134 
L 603 4863 
z
" transform="scale(0.015625)"/>
       <path id="DejaVuSans-6d" d="M 3328 2828 
Q 3544 3216 3844 3400 
Q 4144 3584 4550 3584 
Q 5097 3584 5394 3201 
Q 5691 2819 5691 2113 
L 5691 0 
L 5113 0 
L 5113 2094 
Q 5113 2597 4934 2840 
Q 4756 3084 4391 3084 
Q 3944 3084 3684 2787 
Q 3425 2491 3425 1978 
L 3425 0 
L 2847 0 
L 2847 2094 
Q 2847 2600 2669 2842 
Q 2491 3084 2119 3084 
Q 1678 3084 1418 2786 
Q 1159 2488 1159 1978 
L 1159 0 
L 581 0 
L 581 3500 
L 1159 3500 
L 1159 2956 
Q 1356 3278 1631 3431 
Q 1906 3584 2284 3584 
Q 2666 3584 2933 3390 
Q 3200 3197 3328 2828 
z
" transform="scale(0.015625)"/>
       <path id="DejaVuSans-65" d="M 3597 1894 
L 3597 1613 
L 953 1613 
Q 991 1019 1311 708 
Q 1631 397 2203 397 
Q 2534 397 2845 478 
Q 3156 559 3463 722 
L 3463 178 
Q 3153 47 2828 -22 
Q 2503 -91 2169 -91 
Q 1331 -91 842 396 
Q 353 884 353 1716 
Q 353 2575 817 3079 
Q 1281 3584 2069 3584 
Q 2775 3584 3186 3129 
Q 3597 2675 3597 1894 
z
M 3022 2063 
Q 3016 2534 2758 2815 
Q 2500 3097 2075 3097 
Q 1594 3097 1305 2825 
Q 1016 2553 972 2059 
L 3022 2063 
z
" transform="scale(0.015625)"/>
       <path id="DejaVuSans-20" transform="scale(0.015625)"/>
       <path id="DejaVuSans-28" d="M 1984 4856 
Q 1566 4138 1362 3434 
Q 1159 2731 1159 2009 
Q 1159 1288 1364 580 
Q 1569 -128 1984 -844 
L 1484 -844 
Q 1016 -109 783 600 
Q 550 1309 550 2009 
Q 550 2706 781 3412 
Q 1013 4119 1484 4856 
L 1984 4856 
z
" transform="scale(0.015625)"/>
       <path id="DejaVuSans-4d" d="M 628 4666 
L 1569 4666 
L 2759 1491 
L 3956 4666 
L 4897 4666 
L 4897 0 
L 4281 0 
L 4281 4097 
L 3078 897 
L 2444 897 
L 1241 4097 
L 1241 0 
L 628 0 
L 628 4666 
z
" transform="scale(0.015625)"/>
       <path id="DejaVuSans-6f" d="M 1959 3097 
Q 1497 3097 1228 2736 
Q 959 2375 959 1747 
Q 959 1119 1226 758 
Q 1494 397 1959 397 
Q 2419 397 2687 759 
Q 2956 1122 2956 1747 
Q 2956 2369 2687 2733 
Q 2419 3097 1959 3097 
z
M 1959 3584 
Q 2709 3584 3137 3096 
Q 3566 2609 3566 1747 
Q 3566 888 3137 398 
Q 2709 -91 1959 -91 
Q 1206 -91 779 398 
Q 353 888 353 1747 
Q 353 2609 779 3096 
Q 1206 3584 1959 3584 
z
" transform="scale(0.015625)"/>
       <path id="DejaVuSans-6e" d="M 3513 2113 
L 3513 0 
L 2938 0 
L 2938 2094 
Q 2938 2591 2744 2837 
Q 2550 3084 2163 3084 
Q 1697 3084 1428 2787 
Q 1159 2491 1159 1978 
L 1159 0 
L 581 0 
L 581 3500 
L 1159 3500 
L 1159 2956 
Q 1366 3272 1645 3428 
Q 1925 3584 2291 3584 
Q 2894 3584 3203 3211 
Q 3513 2838 3513 2113 
z
" transform="scale(0.015625)"/>
       <path id="DejaVuSans-74" d="M 1172 4494 
L 1172 3500 
L 2356 3500 
L 2356 3053 
L 1172 3053 
L 1172 1153 
Q 1172 725 1289 603 
Q 1406 481 1766 481 
L 2356 481 
L 2356 0 
L 1766 0 
Q 1100 0 847 248 
Q 594 497 594 1153 
L 594 3053 
L 172 3053 
L 172 3500 
L 594 3500 
L 594 4494 
L 1172 4494 
z
" transform="scale(0.015625)"/>
       <path id="DejaVuSans-68" d="M 3513 2113 
L 3513 0 
L 2938 0 
L 2938 2094 
Q 2938 2591 2744 2837 
Q 2550 3084 2163 3084 
Q 1697 3084 1428 2787 
Q 1159 2491 1159 1978 
L 1159 0 
L 581 0 
L 581 4863 
L 1159 4863 
L 1159 2956 
Q 1366 3272 1645 3428 
Q 1925 3584 2291 3584 
Q 2894 3584 3203 3211 
Q 3513 2838 3513 2113 
z
" transform="scale(0.015625)"/>
       <path id="DejaVuSans-29" d="M 513 4856 
L 1013 4856 
Q 1481 4119 1714 3412 
Q 1947 2706 1947 2009 
Q 1947 1309 1714 600 
Q 1481 -109 1013 -844 
L 513 -844 
Q 928 -128 1133 580 
Q 1338 1288 1338 2009 
Q 1338 2731 1133 3434 
Q 928 4138 513 4856 
z
" transform="scale(0.015625)"/>
      </defs>
      <use xlink:href="#DejaVuSans-54"/>
      <use xlink:href="#DejaVuSans-69" x="57.958984"/>
      <use xlink:href="#DejaVuSans-6d" x="85.742188"/>
      <use xlink:href="#DejaVuSans-65" x="183.154297"/>
      <use xlink:href="#DejaVuSans-20" x="244.677734"/>
      <use xlink:href="#DejaVuSans-28" x="276.464844"/>
      <use xlink:href="#DejaVuSans-4d" x="315.478516"/>
      <use xlink:href="#DejaVuSans-6f" x="401.757812"/>
      <use xlink:href="#DejaVuSans-6e" x="462.939453"/>
      <use xlink:href="#DejaVuSans-74" x="526.318359"/>
      <use xlink:href="#DejaVuSans-68" x="565.527344"/>
      <use xlink:href="#DejaVuSans-29" x="628.90625"/>
     </g>
    </g>
   </g>
   <g id="matplotlib.axis_2">
    <g id="ytick_1">
     <g id="line2d_15">
      <path d="M 47.72 246.039991 
L 418.725 246.039991 
" clip-path="url(#p1af202c1ff)" style="fill: none; stroke: #d3d3d3; stroke-opacity: 0.7; stroke-width: 0.5; stroke-linecap: square"/>
     </g>
     <g id="line2d_16">
      <defs>
       <path id="m1c493954d4" d="M 0 0 
L -3.5 0 
" style="stroke: #000000; stroke-width: 0.8"/>
      </defs>
      <g>
       <use xlink:href="#m1c493954d4" x="47.72" y="246.039991" style="stroke: #000000; stroke-width: 0.8"/>
      </g>
     </g>
     <g id="text_9">
      <!-- 0.0 -->
      <g transform="translate(24.816875 249.83921) scale(0.1 -0.1)">
       <defs>
        <path id="DejaVuSans-2e" d="M 684 794 
L 1344 794 
L 1344 0 
L 684 0 
L 684 794 
z
" transform="scale(0.015625)"/>
       </defs>
       <use xlink:href="#DejaVuSans-30"/>
       <use xlink:href="#DejaVuSans-2e" x="63.623047"/>
       <use xlink:href="#DejaVuSans-30" x="95.410156"/>
      </g>
     </g>
    </g>
    <g id="ytick_2">
     <g id="line2d_17">
      <path d="M 47.72 209.054386 
L 418.725 209.054386 
" clip-path="url(#p1af202c1ff)" style="fill: none; stroke: #d3d3d3; stroke-opacity: 0.7; stroke-width: 0.5; stroke-linecap: square"/>
     </g>
     <g id="line2d_18">
      <g>
       <use xlink:href="#m1c493954d4" x="47.72" y="209.054386" style="stroke: #000000; stroke-width: 0.8"/>
      </g>
     </g>
     <g id="text_10">
      <!-- 0.2 -->
      <g transform="translate(24.816875 212.853604) scale(0.1 -0.1)">
       <use xlink:href="#DejaVuSans-30"/>
       <use xlink:href="#DejaVuSans-2e" x="63.623047"/>
       <use xlink:href="#DejaVuSans-32" x="95.410156"/>
      </g>
     </g>
    </g>
    <g id="ytick_3">
     <g id="line2d_19">
      <path d="M 47.72 172.068781 
L 418.725 172.068781 
" clip-path="url(#p1af202c1ff)" style="fill: none; stroke: #d3d3d3; stroke-opacity: 0.7; stroke-width: 0.5; stroke-linecap: square"/>
     </g>
     <g id="line2d_20">
      <g>
       <use xlink:href="#m1c493954d4" x="47.72" y="172.068781" style="stroke: #000000; stroke-width: 0.8"/>
      </g>
     </g>
     <g id="text_11">
      <!-- 0.4 -->
      <g transform="translate(24.816875 175.867999) scale(0.1 -0.1)">
       <defs>
        <path id="DejaVuSans-34" d="M 2419 4116 
L 825 1625 
L 2419 1625 
L 2419 4116 
z
M 2253 4666 
L 3047 4666 
L 3047 1625 
L 3713 1625 
L 3713 1100 
L 3047 1100 
L 3047 0 
L 2419 0 
L 2419 1100 
L 313 1100 
L 313 1709 
L 2253 4666 
z
" transform="scale(0.015625)"/>
       </defs>
       <use xlink:href="#DejaVuSans-30"/>
       <use xlink:href="#DejaVuSans-2e" x="63.623047"/>
       <use xlink:href="#DejaVuSans-34" x="95.410156"/>
      </g>
     </g>
    </g>
    <g id="ytick_4">
     <g id="line2d_21">
      <path d="M 47.72 135.083176 
L 418.725 135.083176 
" clip-path="url(#p1af202c1ff)" style="fill: none; stroke: #d3d3d3; stroke-opacity: 0.7; stroke-width: 0.5; stroke-linecap: square"/>
     </g>
     <g id="line2d_22">
      <g>
       <use xlink:href="#m1c493954d4" x="47.72" y="135.083176" style="stroke: #000000; stroke-width: 0.8"/>
      </g>
     </g>
     <g id="text_12">
      <!-- 0.6 -->
      <g transform="translate(24.816875 138.882394) scale(0.1 -0.1)">
       <defs>
        <path id="DejaVuSans-36" d="M 2113 2584 
Q 1688 2584 1439 2293 
Q 1191 2003 1191 1497 
Q 1191 994 1439 701 
Q 1688 409 2113 409 
Q 2538 409 2786 701 
Q 3034 994 3034 1497 
Q 3034 2003 2786 2293 
Q 2538 2584 2113 2584 
z
M 3366 4563 
L 3366 3988 
Q 3128 4100 2886 4159 
Q 2644 4219 2406 4219 
Q 1781 4219 1451 3797 
Q 1122 3375 1075 2522 
Q 1259 2794 1537 2939 
Q 1816 3084 2150 3084 
Q 2853 3084 3261 2657 
Q 3669 2231 3669 1497 
Q 3669 778 3244 343 
Q 2819 -91 2113 -91 
Q 1303 -91 875 529 
Q 447 1150 447 2328 
Q 447 3434 972 4092 
Q 1497 4750 2381 4750 
Q 2619 4750 2861 4703 
Q 3103 4656 3366 4563 
z
" transform="scale(0.015625)"/>
       </defs>
       <use xlink:href="#DejaVuSans-30"/>
       <use xlink:href="#DejaVuSans-2e" x="63.623047"/>
       <use xlink:href="#DejaVuSans-36" x="95.410156"/>
      </g>
     </g>
    </g>
    <g id="ytick_5">
     <g id="line2d_23">
      <path d="M 47.72 98.097571 
L 418.725 98.097571 
" clip-path="url(#p1af202c1ff)" style="fill: none; stroke: #d3d3d3; stroke-opacity: 0.7; stroke-width: 0.5; stroke-linecap: square"/>
     </g>
     <g id="line2d_24">
      <g>
       <use xlink:href="#m1c493954d4" x="47.72" y="98.097571" style="stroke: #000000; stroke-width: 0.8"/>
      </g>
     </g>
     <g id="text_13">
      <!-- 0.8 -->
      <g transform="translate(24.816875 101.896789) scale(0.1 -0.1)">
       <defs>
        <path id="DejaVuSans-38" d="M 2034 2216 
Q 1584 2216 1326 1975 
Q 1069 1734 1069 1313 
Q 1069 891 1326 650 
Q 1584 409 2034 409 
Q 2484 409 2743 651 
Q 3003 894 3003 1313 
Q 3003 1734 2745 1975 
Q 2488 2216 2034 2216 
z
M 1403 2484 
Q 997 2584 770 2862 
Q 544 3141 544 3541 
Q 544 4100 942 4425 
Q 1341 4750 2034 4750 
Q 2731 4750 3128 4425 
Q 3525 4100 3525 3541 
Q 3525 3141 3298 2862 
Q 3072 2584 2669 2484 
Q 3125 2378 3379 2068 
Q 3634 1759 3634 1313 
Q 3634 634 3220 271 
Q 2806 -91 2034 -91 
Q 1263 -91 848 271 
Q 434 634 434 1313 
Q 434 1759 690 2068 
Q 947 2378 1403 2484 
z
M 1172 3481 
Q 1172 3119 1398 2916 
Q 1625 2713 2034 2713 
Q 2441 2713 2670 2916 
Q 2900 3119 2900 3481 
Q 2900 3844 2670 4047 
Q 2441 4250 2034 4250 
Q 1625 4250 1398 4047 
Q 1172 3844 1172 3481 
z
" transform="scale(0.015625)"/>
       </defs>
       <use xlink:href="#DejaVuSans-30"/>
       <use xlink:href="#DejaVuSans-2e" x="63.623047"/>
       <use xlink:href="#DejaVuSans-38" x="95.410156"/>
      </g>
     </g>
    </g>
    <g id="ytick_6">
     <g id="line2d_25">
      <path d="M 47.72 61.111966 
L 418.725 61.111966 
" clip-path="url(#p1af202c1ff)" style="fill: none; stroke: #d3d3d3; stroke-opacity: 0.7; stroke-width: 0.5; stroke-linecap: square"/>
     </g>
     <g id="line2d_26">
      <g>
       <use xlink:href="#m1c493954d4" x="47.72" y="61.111966" style="stroke: #000000; stroke-width: 0.8"/>
      </g>
     </g>
     <g id="text_14">
      <!-- 1.0 -->
      <g transform="translate(24.816875 64.911184) scale(0.1 -0.1)">
       <use xlink:href="#DejaVuSans-31"/>
       <use xlink:href="#DejaVuSans-2e" x="63.623047"/>
       <use xlink:href="#DejaVuSans-30" x="95.410156"/>
      </g>
     </g>
    </g>
    <g id="text_15">
     <!-- People -->
     <g transform="translate(18.737188 153.069375) rotate(-90) scale(0.1 -0.1)">
      <defs>
       <path id="DejaVuSans-50" d="M 1259 4147 
L 1259 2394 
L 2053 2394 
Q 2494 2394 2734 2622 
Q 2975 2850 2975 3272 
Q 2975 3691 2734 3919 
Q 2494 4147 2053 4147 
L 1259 4147 
z
M 628 4666 
L 2053 4666 
Q 2838 4666 3239 4311 
Q 3641 3956 3641 3272 
Q 3641 2581 3239 2228 
Q 2838 1875 2053 1875 
L 1259 1875 
L 1259 0 
L 628 0 
L 628 4666 
z
" transform="scale(0.015625)"/>
       <path id="DejaVuSans-70" d="M 1159 525 
L 1159 -1331 
L 581 -1331 
L 581 3500 
L 1159 3500 
L 1159 2969 
Q 1341 3281 1617 3432 
Q 1894 3584 2278 3584 
Q 2916 3584 3314 3078 
Q 3713 2572 3713 1747 
Q 3713 922 3314 415 
Q 2916 -91 2278 -91 
Q 1894 -91 1617 61 
Q 1341 213 1159 525 
z
M 3116 1747 
Q 3116 2381 2855 2742 
Q 2594 3103 2138 3103 
Q 1681 3103 1420 2742 
Q 1159 2381 1159 1747 
Q 1159 1113 1420 752 
Q 1681 391 2138 391 
Q 2594 391 2855 752 
Q 3116 1113 3116 1747 
z
" transform="scale(0.015625)"/>
       <path id="DejaVuSans-6c" d="M 603 4863 
L 1178 4863 
L 1178 0 
L 603 0 
L 603 4863 
z
" transform="scale(0.015625)"/>
      </defs>
      <use xlink:href="#DejaVuSans-50"/>
      <use xlink:href="#DejaVuSans-65" x="56.677734"/>
      <use xlink:href="#DejaVuSans-6f" x="118.201172"/>
      <use xlink:href="#DejaVuSans-70" x="179.382812"/>
      <use xlink:href="#DejaVuSans-6c" x="242.859375"/>
      <use xlink:href="#DejaVuSans-65" x="270.642578"/>
     </g>
    </g>
    <g id="text_16">
     <!-- 1e6 -->
     <g transform="translate(47.72 23.88) scale(0.1 -0.1)">
      <use xlink:href="#DejaVuSans-31"/>
      <use xlink:href="#DejaVuSans-65" x="63.623047"/>
      <use xlink:href="#DejaVuSans-36" x="125.146484"/>
     </g>
    </g>
   </g>
   <g id="line2d_27">
    <path d="M 47.779077 246.037569 
L 53.6868 239.676841 
L 54.868345 239.228634 
L 56.049889 238.252844 
L 57.231434 235.829608 
L 58.412979 234.592817 
L 59.594523 234.196733 
L 60.776068 233.011189 
L 63.139157 229.21126 
L 64.320701 227.726618 
L 65.502246 225.645355 
L 66.683791 224.794329 
L 67.865335 221.424236 
L 69.04688 221.956181 
L 71.409969 214.120613 
L 72.591514 214.669904 
L 73.773058 211.249455 
L 74.954603 209.361857 
L 78.499236 204.523736 
L 79.680781 200.346379 
L 80.862326 199.628992 
L 82.04387 201.396785 
L 84.406959 193.377118 
L 85.588504 197.115808 
L 86.770049 192.51785 
L 87.951593 191.880692 
L 89.133138 188.25953 
L 90.314682 185.34325 
L 92.677771 183.17728 
L 93.859316 182.434748 
L 95.040861 173.668489 
L 96.222405 175.762909 
L 97.40395 170.888119 
L 98.585494 168.330871 
L 99.767039 167.366876 
L 100.948584 170.552625 
L 102.130128 163.107804 
L 104.493217 164.522203 
L 105.674762 160.273915 
L 106.856307 154.71165 
L 108.037851 156.673286 
L 109.219396 149.23603 
L 110.40094 152.788647 
L 111.582485 147.225677 
L 112.764029 143.730121 
L 113.945574 149.503285 
L 115.127119 141.841474 
L 116.308663 145.652436 
L 119.853297 139.685526 
L 121.034842 133.365853 
L 122.216386 134.578854 
L 123.397931 135.136782 
L 124.579475 130.18078 
L 125.76102 136.669118 
L 126.942564 117.901721 
L 128.124109 134.663204 
L 129.305654 122.882988 
L 130.487198 126.277493 
L 131.668743 109.075049 
L 132.850287 112.931618 
L 134.031832 105.199512 
L 135.213377 121.337499 
L 136.394921 114.076138 
L 137.576466 108.817386 
L 138.75801 115.761965 
L 139.939555 108.430493 
L 141.1211 100.397729 
L 142.302644 95.821812 
L 143.484189 111.658447 
L 144.665733 101.339602 
L 145.847278 108.466127 
L 147.028822 100.731524 
L 148.210367 98.25068 
L 150.573456 104.891965 
L 151.755001 100.511217 
L 152.936545 99.279723 
L 154.11809 99.728532 
L 155.299635 99.530127 
L 156.481179 93.082323 
L 157.662724 98.442022 
L 158.844268 90.96388 
L 161.207357 97.524826 
L 162.388902 99.145708 
L 163.570447 93.82059 
L 164.751991 73.015112 
L 167.11508 97.224999 
L 168.296625 81.541022 
L 169.47817 92.757589 
L 170.659714 81.738872 
L 171.841259 75.35926 
L 173.022803 75.571476 
L 174.204348 91.550356 
L 175.385893 93.765412 
L 176.567437 73.831882 
L 177.748982 80.680679 
L 178.930526 82.880572 
L 180.112071 87.983915 
L 181.293615 59.900884 
L 182.47516 71.603973 
L 183.656705 73.639903 
L 184.838249 69.403144 
L 186.019794 80.357622 
L 187.201338 80.770867 
L 189.564428 66.967908 
L 190.745972 70.520468 
L 191.927517 79.33349 
L 193.109061 79.400758 
L 194.290606 63.306564 
L 195.47215 69.294164 
L 196.653695 64.051847 
L 197.83524 71.271125 
L 199.016784 77.797617 
L 200.198329 67.169757 
L 201.379873 59.10055 
L 202.561418 71.120074 
L 203.742963 64.7653 
L 204.924507 77.8716 
L 206.106052 69.335773 
L 207.287596 75.855699 
L 208.469141 56.353352 
L 209.650686 75.321523 
L 210.83223 66.501127 
L 212.013775 60.724807 
L 213.195319 75.062404 
L 214.376864 64.952759 
L 215.558408 79.583478 
L 216.739953 58.712028 
L 217.921498 67.194399 
L 219.103042 58.180833 
L 220.284587 78.7452 
L 221.466131 65.812016 
L 222.647676 66.095984 
L 223.829221 52.707923 
L 225.010765 58.699996 
L 226.19231 52.965701 
L 227.373854 73.673733 
L 228.555399 59.050273 
L 229.736943 61.822586 
L 230.918488 55.199736 
L 232.100033 72.70048 
L 233.281577 59.087767 
L 234.463122 70.615764 
L 235.644666 61.457885 
L 236.826211 75.884987 
L 238.007756 69.106231 
L 239.1893 77.132119 
L 240.370845 60.872183 
L 241.552389 82.908149 
L 242.733934 48.81275 
L 243.915479 62.414113 
L 245.097023 71.474939 
L 246.278568 67.460811 
L 247.460112 68.590363 
L 248.641657 69.468343 
L 249.823201 58.331608 
L 251.004746 45.174291 
L 252.186291 60.336401 
L 253.367835 62.408427 
L 254.54938 74.815999 
L 255.730924 46.74077 
L 256.912469 58.378036 
L 258.094014 56.988949 
L 259.275558 58.888495 
L 260.457103 60.43269 
L 261.638647 57.640023 
L 262.820192 68.608682 
L 264.001736 58.260468 
L 265.183281 66.058756 
L 266.364826 60.840665 
L 267.54637 52.441176 
L 268.727915 62.280364 
L 269.909459 58.219691 
L 271.091004 60.208685 
L 272.272549 52.130763 
L 273.454093 64.844934 
L 274.635638 68.87299 
L 275.817182 79.052515 
L 276.998727 64.507256 
L 278.180271 67.169884 
L 279.361816 60.411863 
L 280.543361 65.808271 
L 281.724905 60.517237 
L 282.90645 37.316075 
L 284.087994 58.741327 
L 285.269539 56.392371 
L 286.451084 46.777547 
L 287.632628 56.98458 
L 288.814173 59.501925 
L 289.995717 68.144952 
L 291.177262 61.815293 
L 292.358807 61.602037 
L 293.540351 59.961921 
L 294.721896 61.746812 
L 295.90344 64.252645 
L 297.084985 69.090061 
L 298.266529 59.15315 
L 299.448074 63.670225 
L 300.629619 60.32616 
L 301.811163 54.720807 
L 304.174252 74.444525 
L 305.355797 61.075188 
L 306.537342 61.84079 
L 307.718886 73.314592 
L 308.900431 71.170952 
L 310.081975 50.201467 
L 311.26352 65.301094 
L 312.445064 58.280463 
L 313.626609 62.468355 
L 314.808154 61.490629 
L 315.989698 64.974199 
L 317.171243 80.273803 
L 318.352787 54.254095 
L 319.534332 63.850634 
L 320.715877 55.767904 
L 321.897421 68.653203 
L 323.078966 60.937579 
L 324.26051 61.084989 
L 325.442055 61.379684 
L 326.6236 58.682404 
L 327.805144 60.84627 
L 328.986689 49.957824 
L 330.168233 65.733941 
L 331.349778 63.464447 
L 332.531322 54.397865 
L 333.712867 60.01933 
L 334.894412 69.947665 
L 336.075956 63.023151 
L 337.257501 77.771912 
L 338.439045 52.159646 
L 339.62059 69.511327 
L 340.802135 60.601657 
L 341.983679 74.421883 
L 343.165224 66.333825 
L 344.346768 64.145722 
L 345.528313 77.184164 
L 346.709857 54.483706 
L 347.891402 56.622919 
L 349.072947 56.15334 
L 350.254491 54.206568 
L 351.436036 62.006347 
L 352.61758 61.798072 
L 353.799125 50.083066 
L 354.98067 68.402776 
L 356.162214 60.064441 
L 357.343759 74.784723 
L 358.525303 54.245727 
L 359.706848 61.981752 
L 360.888393 62.7931 
L 362.069937 68.905734 
L 363.251482 68.756798 
L 364.433026 75.23708 
L 365.614571 53.799634 
L 366.796115 61.89435 
L 367.97766 54.718911 
L 369.159205 67.44478 
L 370.340749 61.5939 
L 371.522294 58.530047 
L 372.703838 61.46519 
L 373.885383 52.731825 
L 375.066928 54.823072 
L 376.248472 68.146558 
L 377.430017 53.867884 
L 378.611561 51.809485 
L 379.793106 53.980367 
L 380.97465 60.199207 
L 382.156195 54.891611 
L 383.33774 59.024984 
L 384.519284 56.545711 
L 385.700829 54.467999 
L 386.882373 58.799579 
L 388.063918 72.488264 
L 389.245463 70.892439 
L 390.427007 54.489427 
L 391.608552 54.981671 
L 392.790096 53.08995 
L 393.971641 60.573918 
L 395.153186 58.228603 
L 396.33473 59.087073 
L 397.516275 51.186578 
L 398.697819 63.321636 
L 399.879364 57.0256 
L 401.060908 60.583638 
L 401.060908 60.583638 
" clip-path="url(#p1af202c1ff)" style="fill: none; stroke-dasharray: 1.85,0.8; stroke-dashoffset: 0; stroke: #000000; stroke-width: 0.5"/>
   </g>
   <g id="patch_3">
    <path d="M 47.72 246.04 
L 47.72 26.88 
" style="fill: none; stroke: #000000; stroke-width: 0.8; stroke-linejoin: miter; stroke-linecap: square"/>
   </g>
   <g id="patch_4">
    <path d="M 47.72 246.04 
L 418.725 246.04 
" style="fill: none; stroke: #000000; stroke-width: 0.8; stroke-linejoin: miter; stroke-linecap: square"/>
   </g>
   <g id="text_17">
    <!-- Adopters -->
    <g transform="translate(206.2975 20.88) scale(0.12 -0.12)">
     <defs>
      <path id="DejaVuSans-41" d="M 2188 4044 
L 1331 1722 
L 3047 1722 
L 2188 4044 
z
M 1831 4666 
L 2547 4666 
L 4325 0 
L 3669 0 
L 3244 1197 
L 1141 1197 
L 716 0 
L 50 0 
L 1831 4666 
z
" transform="scale(0.015625)"/>
      <path id="DejaVuSans-64" d="M 2906 2969 
L 2906 4863 
L 3481 4863 
L 3481 0 
L 2906 0 
L 2906 525 
Q 2725 213 2448 61 
Q 2172 -91 1784 -91 
Q 1150 -91 751 415 
Q 353 922 353 1747 
Q 353 2572 751 3078 
Q 1150 3584 1784 3584 
Q 2172 3584 2448 3432 
Q 2725 3281 2906 2969 
z
M 947 1747 
Q 947 1113 1208 752 
Q 1469 391 1925 391 
Q 2381 391 2643 752 
Q 2906 1113 2906 1747 
Q 2906 2381 2643 2742 
Q 2381 3103 1925 3103 
Q 1469 3103 1208 2742 
Q 947 2381 947 1747 
z
" transform="scale(0.015625)"/>
      <path id="DejaVuSans-72" d="M 2631 2963 
Q 2534 3019 2420 3045 
Q 2306 3072 2169 3072 
Q 1681 3072 1420 2755 
Q 1159 2438 1159 1844 
L 1159 0 
L 581 0 
L 581 3500 
L 1159 3500 
L 1159 2956 
Q 1341 3275 1631 3429 
Q 1922 3584 2338 3584 
Q 2397 3584 2469 3576 
Q 2541 3569 2628 3553 
L 2631 2963 
z
" transform="scale(0.015625)"/>
      <path id="DejaVuSans-73" d="M 2834 3397 
L 2834 2853 
Q 2591 2978 2328 3040 
Q 2066 3103 1784 3103 
Q 1356 3103 1142 2972 
Q 928 2841 928 2578 
Q 928 2378 1081 2264 
Q 1234 2150 1697 2047 
L 1894 2003 
Q 2506 1872 2764 1633 
Q 3022 1394 3022 966 
Q 3022 478 2636 193 
Q 2250 -91 1575 -91 
Q 1294 -91 989 -36 
Q 684 19 347 128 
L 347 722 
Q 666 556 975 473 
Q 1284 391 1588 391 
Q 1994 391 2212 530 
Q 2431 669 2431 922 
Q 2431 1156 2273 1281 
Q 2116 1406 1581 1522 
L 1381 1569 
Q 847 1681 609 1914 
Q 372 2147 372 2553 
Q 372 3047 722 3315 
Q 1072 3584 1716 3584 
Q 2034 3584 2315 3537 
Q 2597 3491 2834 3397 
z
" transform="scale(0.015625)"/>
     </defs>
     <use xlink:href="#DejaVuSans-41"/>
     <use xlink:href="#DejaVuSans-64" x="66.658203"/>
     <use xlink:href="#DejaVuSans-6f" x="130.134766"/>
     <use xlink:href="#DejaVuSans-70" x="191.316406"/>
     <use xlink:href="#DejaVuSans-74" x="254.792969"/>
     <use xlink:href="#DejaVuSans-65" x="294.001953"/>
     <use xlink:href="#DejaVuSans-72" x="355.525391"/>
     <use xlink:href="#DejaVuSans-73" x="396.638672"/>
    </g>
   </g>
  </g>
  <g id="axes_2">
   <g id="patch_5">
    <path d="M 482.195 246.04 
L 853.2 246.04 
L 853.2 26.88 
L 482.195 26.88 
z
" style="fill: #ffffff"/>
   </g>
   <g id="matplotlib.axis_3">
    <g id="xtick_8">
     <g id="line2d_28">
      <path d="M 482.254077 246.04 
L 482.254077 26.88 
" clip-path="url(#p36cdfd0acb)" style="fill: none; stroke: #d3d3d3; stroke-opacity: 0.7; stroke-width: 0.5; stroke-linecap: square"/>
     </g>
     <g id="line2d_29">
      <g>
       <use xlink:href="#mbb9f08e8fe" x="482.254077" y="246.04" style="stroke: #000000; stroke-width: 0.8"/>
      </g>
     </g>
     <g id="text_18">
      <!-- 0 -->
      <g transform="translate(479.072827 260.638438) scale(0.1 -0.1)">
       <use xlink:href="#DejaVuSans-30"/>
      </g>
     </g>
    </g>
    <g id="xtick_9">
     <g id="line2d_30">
      <path d="M 541.331307 246.04 
L 541.331307 26.88 
" clip-path="url(#p36cdfd0acb)" style="fill: none; stroke: #d3d3d3; stroke-opacity: 0.7; stroke-width: 0.5; stroke-linecap: square"/>
     </g>
     <g id="line2d_31">
      <g>
       <use xlink:href="#mbb9f08e8fe" x="541.331307" y="246.04" style="stroke: #000000; stroke-width: 0.8"/>
      </g>
     </g>
     <g id="text_19">
      <!-- 50 -->
      <g transform="translate(534.968807 260.638438) scale(0.1 -0.1)">
       <use xlink:href="#DejaVuSans-35"/>
       <use xlink:href="#DejaVuSans-30" x="63.623047"/>
      </g>
     </g>
    </g>
    <g id="xtick_10">
     <g id="line2d_32">
      <path d="M 600.408536 246.04 
L 600.408536 26.88 
" clip-path="url(#p36cdfd0acb)" style="fill: none; stroke: #d3d3d3; stroke-opacity: 0.7; stroke-width: 0.5; stroke-linecap: square"/>
     </g>
     <g id="line2d_33">
      <g>
       <use xlink:href="#mbb9f08e8fe" x="600.408536" y="246.04" style="stroke: #000000; stroke-width: 0.8"/>
      </g>
     </g>
     <g id="text_20">
      <!-- 100 -->
      <g transform="translate(590.864786 260.638438) scale(0.1 -0.1)">
       <use xlink:href="#DejaVuSans-31"/>
       <use xlink:href="#DejaVuSans-30" x="63.623047"/>
       <use xlink:href="#DejaVuSans-30" x="127.246094"/>
      </g>
     </g>
    </g>
    <g id="xtick_11">
     <g id="line2d_34">
      <path d="M 659.485765 246.04 
L 659.485765 26.88 
" clip-path="url(#p36cdfd0acb)" style="fill: none; stroke: #d3d3d3; stroke-opacity: 0.7; stroke-width: 0.5; stroke-linecap: square"/>
     </g>
     <g id="line2d_35">
      <g>
       <use xlink:href="#mbb9f08e8fe" x="659.485765" y="246.04" style="stroke: #000000; stroke-width: 0.8"/>
      </g>
     </g>
     <g id="text_21">
      <!-- 150 -->
      <g transform="translate(649.942015 260.638438) scale(0.1 -0.1)">
       <use xlink:href="#DejaVuSans-31"/>
       <use xlink:href="#DejaVuSans-35" x="63.623047"/>
       <use xlink:href="#DejaVuSans-30" x="127.246094"/>
      </g>
     </g>
    </g>
    <g id="xtick_12">
     <g id="line2d_36">
      <path d="M 718.562994 246.04 
L 718.562994 26.88 
" clip-path="url(#p36cdfd0acb)" style="fill: none; stroke: #d3d3d3; stroke-opacity: 0.7; stroke-width: 0.5; stroke-linecap: square"/>
     </g>
     <g id="line2d_37">
      <g>
       <use xlink:href="#mbb9f08e8fe" x="718.562994" y="246.04" style="stroke: #000000; stroke-width: 0.8"/>
      </g>
     </g>
     <g id="text_22">
      <!-- 200 -->
      <g transform="translate(709.019244 260.638438) scale(0.1 -0.1)">
       <use xlink:href="#DejaVuSans-32"/>
       <use xlink:href="#DejaVuSans-30" x="63.623047"/>
       <use xlink:href="#DejaVuSans-30" x="127.246094"/>
      </g>
     </g>
    </g>
    <g id="xtick_13">
     <g id="line2d_38">
      <path d="M 777.640224 246.04 
L 777.640224 26.88 
" clip-path="url(#p36cdfd0acb)" style="fill: none; stroke: #d3d3d3; stroke-opacity: 0.7; stroke-width: 0.5; stroke-linecap: square"/>
     </g>
     <g id="line2d_39">
      <g>
       <use xlink:href="#mbb9f08e8fe" x="777.640224" y="246.04" style="stroke: #000000; stroke-width: 0.8"/>
      </g>
     </g>
     <g id="text_23">
      <!-- 250 -->
      <g transform="translate(768.096474 260.638438) scale(0.1 -0.1)">
       <use xlink:href="#DejaVuSans-32"/>
       <use xlink:href="#DejaVuSans-35" x="63.623047"/>
       <use xlink:href="#DejaVuSans-30" x="127.246094"/>
      </g>
     </g>
    </g>
    <g id="xtick_14">
     <g id="line2d_40">
      <path d="M 836.717453 246.04 
L 836.717453 26.88 
" clip-path="url(#p36cdfd0acb)" style="fill: none; stroke: #d3d3d3; stroke-opacity: 0.7; stroke-width: 0.5; stroke-linecap: square"/>
     </g>
     <g id="line2d_41">
      <g>
       <use xlink:href="#mbb9f08e8fe" x="836.717453" y="246.04" style="stroke: #000000; stroke-width: 0.8"/>
      </g>
     </g>
     <g id="text_24">
      <!-- 300 -->
      <g transform="translate(827.173703 260.638438) scale(0.1 -0.1)">
       <use xlink:href="#DejaVuSans-33"/>
       <use xlink:href="#DejaVuSans-30" x="63.623047"/>
       <use xlink:href="#DejaVuSans-30" x="127.246094"/>
      </g>
     </g>
    </g>
    <g id="text_25">
     <!-- Time (Month) -->
     <g transform="translate(634.302187 274.316562) scale(0.1 -0.1)">
      <use xlink:href="#DejaVuSans-54"/>
      <use xlink:href="#DejaVuSans-69" x="57.958984"/>
      <use xlink:href="#DejaVuSans-6d" x="85.742188"/>
      <use xlink:href="#DejaVuSans-65" x="183.154297"/>
      <use xlink:href="#DejaVuSans-20" x="244.677734"/>
      <use xlink:href="#DejaVuSans-28" x="276.464844"/>
      <use xlink:href="#DejaVuSans-4d" x="315.478516"/>
      <use xlink:href="#DejaVuSans-6f" x="401.757812"/>
      <use xlink:href="#DejaVuSans-6e" x="462.939453"/>
      <use xlink:href="#DejaVuSans-74" x="526.318359"/>
      <use xlink:href="#DejaVuSans-68" x="565.527344"/>
      <use xlink:href="#DejaVuSans-29" x="628.90625"/>
     </g>
    </g>
   </g>
   <g id="matplotlib.axis_4">
    <g id="ytick_7">
     <g id="line2d_42">
      <path d="M 482.195 246.039235 
L 853.2 246.039235 
" clip-path="url(#p36cdfd0acb)" style="fill: none; stroke: #d3d3d3; stroke-opacity: 0.7; stroke-width: 0.5; stroke-linecap: square"/>
     </g>
     <g id="line2d_43">
      <g>
       <use xlink:href="#m1c493954d4" x="482.195" y="246.039235" style="stroke: #000000; stroke-width: 0.8"/>
      </g>
     </g>
     <g id="text_26">
      <!-- 0 -->
      <g transform="translate(468.8325 249.838454) scale(0.1 -0.1)">
       <use xlink:href="#DejaVuSans-30"/>
      </g>
     </g>
    </g>
    <g id="ytick_8">
     <g id="line2d_44">
      <path d="M 482.195 215.434717 
L 853.2 215.434717 
" clip-path="url(#p36cdfd0acb)" style="fill: none; stroke: #d3d3d3; stroke-opacity: 0.7; stroke-width: 0.5; stroke-linecap: square"/>
     </g>
     <g id="line2d_45">
      <g>
       <use xlink:href="#m1c493954d4" x="482.195" y="215.434717" style="stroke: #000000; stroke-width: 0.8"/>
      </g>
     </g>
     <g id="text_27">
      <!-- 2000 -->
      <g transform="translate(449.745 219.233935) scale(0.1 -0.1)">
       <use xlink:href="#DejaVuSans-32"/>
       <use xlink:href="#DejaVuSans-30" x="63.623047"/>
       <use xlink:href="#DejaVuSans-30" x="127.246094"/>
       <use xlink:href="#DejaVuSans-30" x="190.869141"/>
      </g>
     </g>
    </g>
    <g id="ytick_9">
     <g id="line2d_46">
      <path d="M 482.195 184.830199 
L 853.2 184.830199 
" clip-path="url(#p36cdfd0acb)" style="fill: none; stroke: #d3d3d3; stroke-opacity: 0.7; stroke-width: 0.5; stroke-linecap: square"/>
     </g>
     <g id="line2d_47">
      <g>
       <use xlink:href="#m1c493954d4" x="482.195" y="184.830199" style="stroke: #000000; stroke-width: 0.8"/>
      </g>
     </g>
     <g id="text_28">
      <!-- 4000 -->
      <g transform="translate(449.745 188.629417) scale(0.1 -0.1)">
       <use xlink:href="#DejaVuSans-34"/>
       <use xlink:href="#DejaVuSans-30" x="63.623047"/>
       <use xlink:href="#DejaVuSans-30" x="127.246094"/>
       <use xlink:href="#DejaVuSans-30" x="190.869141"/>
      </g>
     </g>
    </g>
    <g id="ytick_10">
     <g id="line2d_48">
      <path d="M 482.195 154.22568 
L 853.2 154.22568 
" clip-path="url(#p36cdfd0acb)" style="fill: none; stroke: #d3d3d3; stroke-opacity: 0.7; stroke-width: 0.5; stroke-linecap: square"/>
     </g>
     <g id="line2d_49">
      <g>
       <use xlink:href="#m1c493954d4" x="482.195" y="154.22568" style="stroke: #000000; stroke-width: 0.8"/>
      </g>
     </g>
     <g id="text_29">
      <!-- 6000 -->
      <g transform="translate(449.745 158.024899) scale(0.1 -0.1)">
       <use xlink:href="#DejaVuSans-36"/>
       <use xlink:href="#DejaVuSans-30" x="63.623047"/>
       <use xlink:href="#DejaVuSans-30" x="127.246094"/>
       <use xlink:href="#DejaVuSans-30" x="190.869141"/>
      </g>
     </g>
    </g>
    <g id="ytick_11">
     <g id="line2d_50">
      <path d="M 482.195 123.621162 
L 853.2 123.621162 
" clip-path="url(#p36cdfd0acb)" style="fill: none; stroke: #d3d3d3; stroke-opacity: 0.7; stroke-width: 0.5; stroke-linecap: square"/>
     </g>
     <g id="line2d_51">
      <g>
       <use xlink:href="#m1c493954d4" x="482.195" y="123.621162" style="stroke: #000000; stroke-width: 0.8"/>
      </g>
     </g>
     <g id="text_30">
      <!-- 8000 -->
      <g transform="translate(449.745 127.420381) scale(0.1 -0.1)">
       <use xlink:href="#DejaVuSans-38"/>
       <use xlink:href="#DejaVuSans-30" x="63.623047"/>
       <use xlink:href="#DejaVuSans-30" x="127.246094"/>
       <use xlink:href="#DejaVuSans-30" x="190.869141"/>
      </g>
     </g>
    </g>
    <g id="ytick_12">
     <g id="line2d_52">
      <path d="M 482.195 93.016644 
L 853.2 93.016644 
" clip-path="url(#p36cdfd0acb)" style="fill: none; stroke: #d3d3d3; stroke-opacity: 0.7; stroke-width: 0.5; stroke-linecap: square"/>
     </g>
     <g id="line2d_53">
      <g>
       <use xlink:href="#m1c493954d4" x="482.195" y="93.016644" style="stroke: #000000; stroke-width: 0.8"/>
      </g>
     </g>
     <g id="text_31">
      <!-- 10000 -->
      <g transform="translate(443.3825 96.815863) scale(0.1 -0.1)">
       <use xlink:href="#DejaVuSans-31"/>
       <use xlink:href="#DejaVuSans-30" x="63.623047"/>
       <use xlink:href="#DejaVuSans-30" x="127.246094"/>
       <use xlink:href="#DejaVuSans-30" x="190.869141"/>
       <use xlink:href="#DejaVuSans-30" x="254.492188"/>
      </g>
     </g>
    </g>
    <g id="ytick_13">
     <g id="line2d_54">
      <path d="M 482.195 62.412126 
L 853.2 62.412126 
" clip-path="url(#p36cdfd0acb)" style="fill: none; stroke: #d3d3d3; stroke-opacity: 0.7; stroke-width: 0.5; stroke-linecap: square"/>
     </g>
     <g id="line2d_55">
      <g>
       <use xlink:href="#m1c493954d4" x="482.195" y="62.412126" style="stroke: #000000; stroke-width: 0.8"/>
      </g>
     </g>
     <g id="text_32">
      <!-- 12000 -->
      <g transform="translate(443.3825 66.211345) scale(0.1 -0.1)">
       <use xlink:href="#DejaVuSans-31"/>
       <use xlink:href="#DejaVuSans-32" x="63.623047"/>
       <use xlink:href="#DejaVuSans-30" x="127.246094"/>
       <use xlink:href="#DejaVuSans-30" x="190.869141"/>
       <use xlink:href="#DejaVuSans-30" x="254.492188"/>
      </g>
     </g>
    </g>
    <g id="ytick_14">
     <g id="line2d_56">
      <path d="M 482.195 31.807608 
L 853.2 31.807608 
" clip-path="url(#p36cdfd0acb)" style="fill: none; stroke: #d3d3d3; stroke-opacity: 0.7; stroke-width: 0.5; stroke-linecap: square"/>
     </g>
     <g id="line2d_57">
      <g>
       <use xlink:href="#m1c493954d4" x="482.195" y="31.807608" style="stroke: #000000; stroke-width: 0.8"/>
      </g>
     </g>
     <g id="text_33">
      <!-- 14000 -->
      <g transform="translate(443.3825 35.606826) scale(0.1 -0.1)">
       <use xlink:href="#DejaVuSans-31"/>
       <use xlink:href="#DejaVuSans-34" x="63.623047"/>
       <use xlink:href="#DejaVuSans-30" x="127.246094"/>
       <use xlink:href="#DejaVuSans-30" x="190.869141"/>
       <use xlink:href="#DejaVuSans-30" x="254.492188"/>
      </g>
     </g>
    </g>
    <g id="text_34">
     <!-- People/Month -->
     <g transform="translate(437.302812 170.424844) rotate(-90) scale(0.1 -0.1)">
      <defs>
       <path id="DejaVuSans-2f" d="M 1625 4666 
L 2156 4666 
L 531 -594 
L 0 -594 
L 1625 4666 
z
" transform="scale(0.015625)"/>
      </defs>
      <use xlink:href="#DejaVuSans-50"/>
      <use xlink:href="#DejaVuSans-65" x="56.677734"/>
      <use xlink:href="#DejaVuSans-6f" x="118.201172"/>
      <use xlink:href="#DejaVuSans-70" x="179.382812"/>
      <use xlink:href="#DejaVuSans-6c" x="242.859375"/>
      <use xlink:href="#DejaVuSans-65" x="270.642578"/>
      <use xlink:href="#DejaVuSans-2f" x="332.166016"/>
      <use xlink:href="#DejaVuSans-4d" x="365.857422"/>
      <use xlink:href="#DejaVuSans-6f" x="452.136719"/>
      <use xlink:href="#DejaVuSans-6e" x="513.318359"/>
      <use xlink:href="#DejaVuSans-74" x="576.697266"/>
      <use xlink:href="#DejaVuSans-68" x="615.90625"/>
     </g>
    </g>
   </g>
   <g id="line2d_58">
    <path d="M 482.254077 178.502356 
L 483.435622 134.213494 
L 484.617166 157.660074 
L 485.798711 153.548025 
L 486.980256 105.267492 
L 488.1618 144.85682 
L 489.343345 142.968799 
L 490.524889 136.381259 
L 491.706434 126.961239 
L 492.887979 102.296254 
L 494.069523 160.494212 
L 495.251068 146.013583 
L 496.432612 114.349114 
L 497.614157 136.373361 
L 498.795701 108.118554 
L 499.977246 89.557482 
L 501.158791 127.866747 
L 502.340335 88.92308 
L 503.52188 108.752985 
L 504.703424 96.495099 
L 505.884969 73.066518 
L 507.066514 71.671592 
L 508.248058 75.677451 
L 509.429603 94.933895 
L 510.611147 76.647456 
L 511.792692 80.623533 
L 512.974236 64.077696 
L 514.155781 111.820834 
L 515.337326 105.598075 
L 516.51887 110.998861 
L 517.700415 105.632908 
L 518.881959 107.483809 
L 520.063504 77.435941 
L 521.245049 95.141327 
L 522.426593 43.06342 
L 524.789682 108.847653 
L 525.971227 69.512 
L 527.152771 93.328413 
L 528.334316 37.312521 
L 529.515861 93.144277 
L 530.697405 56.132043 
L 531.87895 83.46914 
L 533.060494 87.662916 
L 534.242039 75.971168 
L 535.423584 42.560956 
L 536.605128 55.547897 
L 537.786673 85.814839 
L 538.968217 52.570427 
L 540.149762 89.521572 
L 541.331307 109.847425 
L 542.512851 103.57202 
L 543.694396 109.454259 
L 544.87594 59.001037 
L 546.057485 63.523766 
L 547.239029 81.725445 
L 548.420574 81.957474 
L 549.602119 99.704209 
L 550.783663 121.736242 
L 551.965208 93.188331 
L 553.146752 79.85712 
L 554.328297 112.41414 
L 555.509842 71.925782 
L 556.691386 114.003543 
L 557.872931 86.18955 
L 559.054475 116.636458 
L 560.23602 167.852775 
L 561.417564 121.872386 
L 562.599109 139.814397 
L 563.780654 79.651152 
L 564.962198 74.557084 
L 566.143743 104.786069 
L 567.325287 97.520918 
L 568.506832 127.876423 
L 569.688377 163.894534 
L 570.869921 109.073974 
L 572.051466 140.612378 
L 573.23301 121.905015 
L 574.414555 144.721999 
L 575.5961 90.969802 
L 576.777644 117.1024 
L 577.959189 112.21681 
L 579.140733 165.347942 
L 580.322278 178.056483 
L 581.503822 202.341624 
L 582.685367 172.511432 
L 583.866912 171.415609 
L 585.048456 160.401524 
L 586.230001 162.684983 
L 587.411545 168.639975 
L 588.59309 175.857157 
L 589.774635 182.159215 
L 590.956179 182.136089 
L 593.319268 199.223105 
L 594.500813 194.527635 
L 595.682357 204.759288 
L 596.863902 201.592833 
L 598.045447 170.002646 
L 599.226991 177.175027 
L 600.408536 151.279816 
L 601.59008 181.987199 
L 602.771625 188.947291 
L 603.95317 180.617863 
L 605.134714 181.98099 
L 606.316259 177.350308 
L 607.497803 193.796695 
L 608.679348 193.155505 
L 609.860893 190.617766 
L 611.042437 189.235224 
L 612.223982 175.290742 
L 613.405526 189.841408 
L 614.587071 158.787338 
L 615.768615 193.623177 
L 616.95016 182.314778 
L 618.131705 194.485046 
L 619.313249 184.051046 
L 620.494794 196.45049 
L 621.676338 197.323395 
L 622.857883 195.345425 
L 624.039428 198.20506 
L 625.220972 203.758387 
L 626.402517 195.448278 
L 627.584061 216.380158 
L 628.765606 213.314969 
L 629.94715 210.855112 
L 631.128695 211.932315 
L 632.31024 213.472534 
L 634.673329 214.524882 
L 635.854873 224.014928 
L 637.036418 225.660855 
L 638.217963 230.760622 
L 639.399507 226.01418 
L 640.581052 215.739977 
L 641.762596 231.178749 
L 642.944141 232.639474 
L 644.125686 224.175876 
L 645.30723 222.108205 
L 646.488775 226.806436 
L 647.670319 229.9869 
L 648.851864 231.091945 
L 650.033408 228.063295 
L 651.214953 227.922048 
L 652.396498 227.652506 
L 653.578042 228.067867 
L 654.759587 225.825457 
L 655.941131 230.31557 
L 657.122676 225.171644 
L 658.304221 228.045762 
L 659.485765 228.439623 
L 660.66731 230.501437 
L 661.848854 234.313235 
L 663.030399 232.080379 
L 664.211943 234.371019 
L 665.393488 235.987739 
L 666.575033 237.331315 
L 667.756577 236.672986 
L 668.938122 239.892635 
L 670.119666 237.683396 
L 671.301211 237.325098 
L 672.482756 235.998788 
L 673.6643 230.658868 
L 674.845845 236.686515 
L 676.027389 238.019626 
L 677.208934 236.505741 
L 678.390479 237.349345 
L 679.572023 237.259269 
L 680.753568 238.121913 
L 681.935112 239.865224 
L 683.116657 239.454648 
L 684.298201 241.161354 
L 686.661291 240.208368 
L 687.842835 241.165939 
L 689.02438 240.305121 
L 690.205924 240.488038 
L 691.387469 241.895606 
L 693.750558 240.436254 
L 694.932103 240.651429 
L 696.113647 239.991234 
L 697.295192 242.331281 
L 698.476736 242.087895 
L 699.658281 242.021046 
L 700.839826 242.964172 
L 702.02137 242.800786 
L 703.202915 243.26385 
L 706.747549 242.847198 
L 707.929093 242.053668 
L 709.110638 243.551184 
L 710.292182 242.941735 
L 711.473727 243.087908 
L 713.836816 243.665447 
L 715.018361 243.572445 
L 716.199905 243.891483 
L 717.38145 243.180064 
L 718.562994 243.582897 
L 719.744539 242.528934 
L 720.926084 243.109865 
L 722.107628 242.726745 
L 723.289173 243.081058 
L 724.470717 243.77852 
L 725.652262 243.884611 
L 726.833807 243.416384 
L 728.015351 243.320528 
L 729.196896 243.684915 
L 730.37844 242.764199 
L 731.559985 244.104317 
L 732.741529 243.920436 
L 733.923074 244.160816 
L 735.104619 243.947431 
L 736.286163 244.55109 
L 737.467708 244.252657 
L 738.649252 244.526606 
L 739.830797 243.934485 
L 741.012342 243.857791 
L 742.193886 244.73678 
L 743.375431 244.96191 
L 745.73852 244.606524 
L 746.920064 244.761904 
L 749.283154 244.714365 
L 750.464698 244.905434 
L 752.827787 244.970905 
L 756.372421 245.321205 
L 757.553966 245.16413 
L 761.0986 245.321205 
L 762.280144 245.223826 
L 765.824778 245.298826 
L 767.006322 245.43068 
L 776.458679 245.487812 
L 777.640224 245.41544 
L 782.366402 245.606841 
L 784.729491 245.587866 
L 787.09258 245.769801 
L 789.45567 245.549898 
L 791.818759 245.723527 
L 794.181848 245.711944 
L 805.997294 245.78465 
L 808.360383 245.774228 
L 810.723472 245.839508 
L 821.357373 245.879198 
L 835.535908 245.920872 
L 835.535908 245.920872 
" clip-path="url(#p36cdfd0acb)" style="fill: none; stroke-dasharray: 1.85,0.8; stroke-dashoffset: 0; stroke: #000000; stroke-width: 0.5"/>
   </g>
   <g id="patch_6">
    <path d="M 482.195 246.04 
L 482.195 26.88 
" style="fill: none; stroke: #000000; stroke-width: 0.8; stroke-linejoin: miter; stroke-linecap: square"/>
   </g>
   <g id="patch_7">
    <path d="M 482.195 246.04 
L 853.2 246.04 
" style="fill: none; stroke: #000000; stroke-width: 0.8; stroke-linejoin: miter; stroke-linecap: square"/>
   </g>
   <g id="text_35">
    <!-- Adoption Rate -->
    <g transform="translate(625.254063 20.88) scale(0.12 -0.12)">
     <defs>
      <path id="DejaVuSans-52" d="M 2841 2188 
Q 3044 2119 3236 1894 
Q 3428 1669 3622 1275 
L 4263 0 
L 3584 0 
L 2988 1197 
Q 2756 1666 2539 1819 
Q 2322 1972 1947 1972 
L 1259 1972 
L 1259 0 
L 628 0 
L 628 4666 
L 2053 4666 
Q 2853 4666 3247 4331 
Q 3641 3997 3641 3322 
Q 3641 2881 3436 2590 
Q 3231 2300 2841 2188 
z
M 1259 4147 
L 1259 2491 
L 2053 2491 
Q 2509 2491 2742 2702 
Q 2975 2913 2975 3322 
Q 2975 3731 2742 3939 
Q 2509 4147 2053 4147 
L 1259 4147 
z
" transform="scale(0.015625)"/>
      <path id="DejaVuSans-61" d="M 2194 1759 
Q 1497 1759 1228 1600 
Q 959 1441 959 1056 
Q 959 750 1161 570 
Q 1363 391 1709 391 
Q 2188 391 2477 730 
Q 2766 1069 2766 1631 
L 2766 1759 
L 2194 1759 
z
M 3341 1997 
L 3341 0 
L 2766 0 
L 2766 531 
Q 2569 213 2275 61 
Q 1981 -91 1556 -91 
Q 1019 -91 701 211 
Q 384 513 384 1019 
Q 384 1609 779 1909 
Q 1175 2209 1959 2209 
L 2766 2209 
L 2766 2266 
Q 2766 2663 2505 2880 
Q 2244 3097 1772 3097 
Q 1472 3097 1187 3025 
Q 903 2953 641 2809 
L 641 3341 
Q 956 3463 1253 3523 
Q 1550 3584 1831 3584 
Q 2591 3584 2966 3190 
Q 3341 2797 3341 1997 
z
" transform="scale(0.015625)"/>
     </defs>
     <use xlink:href="#DejaVuSans-41"/>
     <use xlink:href="#DejaVuSans-64" x="66.658203"/>
     <use xlink:href="#DejaVuSans-6f" x="130.134766"/>
     <use xlink:href="#DejaVuSans-70" x="191.316406"/>
     <use xlink:href="#DejaVuSans-74" x="254.792969"/>
     <use xlink:href="#DejaVuSans-69" x="294.001953"/>
     <use xlink:href="#DejaVuSans-6f" x="321.785156"/>
     <use xlink:href="#DejaVuSans-6e" x="382.966797"/>
     <use xlink:href="#DejaVuSans-20" x="446.345703"/>
     <use xlink:href="#DejaVuSans-52" x="478.132812"/>
     <use xlink:href="#DejaVuSans-61" x="545.365234"/>
     <use xlink:href="#DejaVuSans-74" x="606.644531"/>
     <use xlink:href="#DejaVuSans-65" x="645.853516"/>
    </g>
   </g>
  </g>
 </g>
 <defs>
  <clipPath id="p1af202c1ff">
   <rect x="47.72" y="26.88" width="371.005" height="219.16"/>
  </clipPath>
  <clipPath id="p36cdfd0acb">
   <rect x="482.195" y="26.88" width="371.005" height="219.16"/>
  </clipPath>
 </defs>
</svg>
