<?xml version="1.0" encoding="utf-8" standalone="no"?>
<!DOCTYPE svg PUBLIC "-//W3C//DTD SVG 1.1//EN"
  "http://www.w3.org/Graphics/SVG/1.1/DTD/svg11.dtd">
<svg xmlns:xlink="http://www.w3.org/1999/xlink" width="2592pt" height="1080pt" viewBox="0 0 2592 1080" xmlns="http://www.w3.org/2000/svg" version="1.1">
 <metadata>
  <rdf:RDF xmlns:dc="http://purl.org/dc/elements/1.1/" xmlns:cc="http://creativecommons.org/ns#" xmlns:rdf="http://www.w3.org/1999/02/22-rdf-syntax-ns#">
   <cc:Work>
    <dc:type rdf:resource="http://purl.org/dc/dcmitype/StillImage"/>
    <dc:date>2025-03-11T14:39:10.875049</dc:date>
    <dc:format>image/svg+xml</dc:format>
    <dc:creator>
     <cc:Agent>
      <dc:title>Matplotlib v3.9.2, https://matplotlib.org/</dc:title>
     </cc:Agent>
    </dc:creator>
   </cc:Work>
  </rdf:RDF>
 </metadata>
 <defs>
  <style type="text/css">*{stroke-linejoin: round; stroke-linecap: butt}</style>
 </defs>
 <g id="figure_1">
  <g id="patch_1">
   <path d="M 0 1080 
L 2592 1080 
L 2592 0 
L 0 0 
z
" style="fill: #ffffff"/>
  </g>
  <g id="axes_1">
   <g id="patch_2">
    <path d="M 324 374.188235 
L 760.695652 374.188235 
L 760.695652 129.6 
L 324 129.6 
z
" style="fill: #ffffff"/>
   </g>
   <g id="patch_3">
    <path d="M 360.609652 374.188235 
L 378.774372 374.188235 
L 378.774372 147.21991 
L 360.609652 147.21991 
z
" clip-path="url(#pb1c5f38267)" style="fill: #b22222; opacity: 0.8"/>
   </g>
   <g id="patch_4">
    <path d="M 378.774372 374.188235 
L 396.939091 374.188235 
L 396.939091 200.975566 
L 378.774372 200.975566 
z
" clip-path="url(#pb1c5f38267)" style="fill: #b22222; opacity: 0.8"/>
   </g>
   <g id="patch_5">
    <path d="M 396.939091 374.188235 
L 415.103809 374.188235 
L 415.103809 141.247059 
L 396.939091 141.247059 
z
" clip-path="url(#pb1c5f38267)" style="fill: #b22222; opacity: 0.8"/>
   </g>
   <g id="patch_6">
    <path d="M 415.103809 374.188235 
L 433.26853 374.188235 
L 433.26853 200.975566 
L 415.103809 200.975566 
z
" clip-path="url(#pb1c5f38267)" style="fill: #b22222; opacity: 0.8"/>
   </g>
   <g id="patch_7">
    <path d="M 433.26853 374.188235 
L 451.43325 374.188235 
L 451.43325 200.975566 
L 433.26853 200.975566 
z
" clip-path="url(#pb1c5f38267)" style="fill: #b22222; opacity: 0.8"/>
   </g>
   <g id="patch_8">
    <path d="M 451.43325 374.188235 
L 469.597966 374.188235 
L 469.597966 230.839819 
L 451.43325 230.839819 
z
" clip-path="url(#pb1c5f38267)" style="fill: #b22222; opacity: 0.8"/>
   </g>
   <g id="patch_9">
    <path d="M 469.597966 374.188235 
L 487.762691 374.188235 
L 487.762691 242.78552 
L 469.597966 242.78552 
z
" clip-path="url(#pb1c5f38267)" style="fill: #b22222; opacity: 0.8"/>
   </g>
   <g id="patch_10">
    <path d="M 487.762691 374.188235 
L 505.927407 374.188235 
L 505.927407 200.975566 
L 487.762691 200.975566 
z
" clip-path="url(#pb1c5f38267)" style="fill: #b22222; opacity: 0.8"/>
   </g>
   <g id="patch_11">
    <path d="M 505.927407 374.188235 
L 524.092132 374.188235 
L 524.092132 242.78552 
L 505.927407 242.78552 
z
" clip-path="url(#pb1c5f38267)" style="fill: #b22222; opacity: 0.8"/>
   </g>
   <g id="patch_12">
    <path d="M 524.092132 374.188235 
L 542.256848 374.188235 
L 542.256848 278.622624 
L 524.092132 278.622624 
z
" clip-path="url(#pb1c5f38267)" style="fill: #b22222; opacity: 0.8"/>
   </g>
   <g id="patch_13">
    <path d="M 542.256848 374.188235 
L 560.421564 374.188235 
L 560.421564 248.758371 
L 542.256848 248.758371 
z
" clip-path="url(#pb1c5f38267)" style="fill: #b22222; opacity: 0.8"/>
   </g>
   <g id="patch_14">
    <path d="M 560.421564 374.188235 
L 578.58628 374.188235 
L 578.58628 260.704072 
L 560.421564 260.704072 
z
" clip-path="url(#pb1c5f38267)" style="fill: #b22222; opacity: 0.8"/>
   </g>
   <g id="patch_15">
    <path d="M 578.58628 374.188235 
L 596.751014 374.188235 
L 596.751014 236.81267 
L 578.58628 236.81267 
z
" clip-path="url(#pb1c5f38267)" style="fill: #b22222; opacity: 0.8"/>
   </g>
   <g id="patch_16">
    <path d="M 596.751014 374.188235 
L 614.91573 374.188235 
L 614.91573 248.758371 
L 596.751014 248.758371 
z
" clip-path="url(#pb1c5f38267)" style="fill: #b22222; opacity: 0.8"/>
   </g>
   <g id="patch_17">
    <path d="M 614.91573 374.188235 
L 633.080446 374.188235 
L 633.080446 302.514027 
L 614.91573 302.514027 
z
" clip-path="url(#pb1c5f38267)" style="fill: #b22222; opacity: 0.8"/>
   </g>
   <g id="patch_18">
    <path d="M 633.080446 374.188235 
L 651.245162 374.188235 
L 651.245162 218.894118 
L 633.080446 218.894118 
z
" clip-path="url(#pb1c5f38267)" style="fill: #b22222; opacity: 0.8"/>
   </g>
   <g id="patch_19">
    <path d="M 651.245162 374.188235 
L 669.409878 374.188235 
L 669.409878 212.921267 
L 651.245162 212.921267 
z
" clip-path="url(#pb1c5f38267)" style="fill: #b22222; opacity: 0.8"/>
   </g>
   <g id="patch_20">
    <path d="M 669.409878 374.188235 
L 687.574611 374.188235 
L 687.574611 224.866968 
L 669.409878 224.866968 
z
" clip-path="url(#pb1c5f38267)" style="fill: #b22222; opacity: 0.8"/>
   </g>
   <g id="patch_21">
    <path d="M 687.574611 374.188235 
L 705.73931 374.188235 
L 705.73931 230.839819 
L 687.574611 230.839819 
z
" clip-path="url(#pb1c5f38267)" style="fill: #b22222; opacity: 0.8"/>
   </g>
   <g id="patch_22">
    <path d="M 705.73931 374.188235 
L 723.904043 374.188235 
L 723.904043 224.866968 
L 705.73931 224.866968 
z
" clip-path="url(#pb1c5f38267)" style="fill: #b22222; opacity: 0.8"/>
   </g>
   <g id="PolyCollection_1">
    <defs>
     <path id="mda49ad4b12" d="M 360.391304 -926.80724 
L 360.391304 -777.485973 
L 379.544622 -777.485973 
L 398.697941 -777.485973 
L 417.851259 -777.485973 
L 437.004577 -777.485973 
L 456.157895 -777.485973 
L 475.311213 -777.485973 
L 494.464531 -777.485973 
L 513.617849 -777.485973 
L 532.771167 -777.485973 
L 551.924485 -777.485973 
L 571.077803 -777.485973 
L 590.231121 -777.485973 
L 609.384439 -777.485973 
L 628.537757 -777.485973 
L 647.691076 -777.485973 
L 666.844394 -777.485973 
L 685.997712 -777.485973 
L 705.15103 -777.485973 
L 724.304348 -777.485973 
L 724.304348 -926.80724 
L 724.304348 -926.80724 
L 705.15103 -926.80724 
L 685.997712 -926.80724 
L 666.844394 -926.80724 
L 647.691076 -926.80724 
L 628.537757 -926.80724 
L 609.384439 -926.80724 
L 590.231121 -926.80724 
L 571.077803 -926.80724 
L 551.924485 -926.80724 
L 532.771167 -926.80724 
L 513.617849 -926.80724 
L 494.464531 -926.80724 
L 475.311213 -926.80724 
L 456.157895 -926.80724 
L 437.004577 -926.80724 
L 417.851259 -926.80724 
L 398.697941 -926.80724 
L 379.544622 -926.80724 
L 360.391304 -926.80724 
z
" style="stroke: #808080; stroke-opacity: 0.3"/>
    </defs>
    <g clip-path="url(#pb1c5f38267)">
     <use xlink:href="#mda49ad4b12" x="0" y="1080" style="fill: #808080; fill-opacity: 0.3; stroke: #808080; stroke-opacity: 0.3"/>
    </g>
   </g>
   <g id="matplotlib.axis_1">
    <g id="xtick_1">
     <g id="line2d_1">
      <defs>
       <path id="m7f60092319" d="M 0 0 
L 0 3.5 
" style="stroke: #000000; stroke-width: 0.8"/>
      </defs>
      <g>
       <use xlink:href="#m7f60092319" x="360.391304" y="374.188235" style="stroke: #000000; stroke-width: 0.8"/>
      </g>
     </g>
     <g id="text_1">
      <!-- 0 -->
      <g transform="translate(357.210054 388.786673) scale(0.1 -0.1)">
       <defs>
        <path id="DejaVuSans-30" d="M 2034 4250 
Q 1547 4250 1301 3770 
Q 1056 3291 1056 2328 
Q 1056 1369 1301 889 
Q 1547 409 2034 409 
Q 2525 409 2770 889 
Q 3016 1369 3016 2328 
Q 3016 3291 2770 3770 
Q 2525 4250 2034 4250 
z
M 2034 4750 
Q 2819 4750 3233 4129 
Q 3647 3509 3647 2328 
Q 3647 1150 3233 529 
Q 2819 -91 2034 -91 
Q 1250 -91 836 529 
Q 422 1150 422 2328 
Q 422 3509 836 4129 
Q 1250 4750 2034 4750 
z
" transform="scale(0.015625)"/>
       </defs>
       <use xlink:href="#DejaVuSans-30"/>
      </g>
     </g>
    </g>
    <g id="xtick_2">
     <g id="line2d_2">
      <g>
       <use xlink:href="#m7f60092319" x="542.347826" y="374.188235" style="stroke: #000000; stroke-width: 0.8"/>
      </g>
     </g>
     <g id="text_2">
      <!-- 5000 -->
      <g transform="translate(529.622826 388.786673) scale(0.1 -0.1)">
       <defs>
        <path id="DejaVuSans-35" d="M 691 4666 
L 3169 4666 
L 3169 4134 
L 1269 4134 
L 1269 2991 
Q 1406 3038 1543 3061 
Q 1681 3084 1819 3084 
Q 2600 3084 3056 2656 
Q 3513 2228 3513 1497 
Q 3513 744 3044 326 
Q 2575 -91 1722 -91 
Q 1428 -91 1123 -41 
Q 819 9 494 109 
L 494 744 
Q 775 591 1075 516 
Q 1375 441 1709 441 
Q 2250 441 2565 725 
Q 2881 1009 2881 1497 
Q 2881 1984 2565 2268 
Q 2250 2553 1709 2553 
Q 1456 2553 1204 2497 
Q 953 2441 691 2322 
L 691 4666 
z
" transform="scale(0.015625)"/>
       </defs>
       <use xlink:href="#DejaVuSans-35"/>
       <use xlink:href="#DejaVuSans-30" x="63.623047"/>
       <use xlink:href="#DejaVuSans-30" x="127.246094"/>
       <use xlink:href="#DejaVuSans-30" x="190.869141"/>
      </g>
     </g>
    </g>
    <g id="xtick_3">
     <g id="line2d_3">
      <g>
       <use xlink:href="#m7f60092319" x="724.304348" y="374.188235" style="stroke: #000000; stroke-width: 0.8"/>
      </g>
     </g>
     <g id="text_3">
      <!-- 10000 -->
      <g transform="translate(708.398098 388.786673) scale(0.1 -0.1)">
       <defs>
        <path id="DejaVuSans-31" d="M 794 531 
L 1825 531 
L 1825 4091 
L 703 3866 
L 703 4441 
L 1819 4666 
L 2450 4666 
L 2450 531 
L 3481 531 
L 3481 0 
L 794 0 
L 794 531 
z
" transform="scale(0.015625)"/>
       </defs>
       <use xlink:href="#DejaVuSans-31"/>
       <use xlink:href="#DejaVuSans-30" x="63.623047"/>
       <use xlink:href="#DejaVuSans-30" x="127.246094"/>
       <use xlink:href="#DejaVuSans-30" x="190.869141"/>
       <use xlink:href="#DejaVuSans-30" x="254.492188"/>
      </g>
     </g>
    </g>
    <g id="text_4">
     <!-- b1 -->
     <g transform="translate(535.992357 402.464798) scale(0.1 -0.1)">
      <defs>
       <path id="DejaVuSans-62" d="M 3116 1747 
Q 3116 2381 2855 2742 
Q 2594 3103 2138 3103 
Q 1681 3103 1420 2742 
Q 1159 2381 1159 1747 
Q 1159 1113 1420 752 
Q 1681 391 2138 391 
Q 2594 391 2855 752 
Q 3116 1113 3116 1747 
z
M 1159 2969 
Q 1341 3281 1617 3432 
Q 1894 3584 2278 3584 
Q 2916 3584 3314 3078 
Q 3713 2572 3713 1747 
Q 3713 922 3314 415 
Q 2916 -91 2278 -91 
Q 1894 -91 1617 61 
Q 1341 213 1159 525 
L 1159 0 
L 581 0 
L 581 4863 
L 1159 4863 
L 1159 2969 
z
" transform="scale(0.015625)"/>
      </defs>
      <use xlink:href="#DejaVuSans-62"/>
      <use xlink:href="#DejaVuSans-31" x="63.476562"/>
     </g>
    </g>
   </g>
   <g id="matplotlib.axis_2"/>
   <g id="patch_23">
    <path d="M 324 374.188235 
L 324 129.6 
" style="fill: none; stroke: #000000; stroke-width: 0.8; stroke-linejoin: miter; stroke-linecap: square"/>
   </g>
   <g id="patch_24">
    <path d="M 760.695652 374.188235 
L 760.695652 129.6 
" style="fill: none; stroke: #000000; stroke-width: 0.8; stroke-linejoin: miter; stroke-linecap: square"/>
   </g>
   <g id="patch_25">
    <path d="M 324 374.188235 
L 760.695652 374.188235 
" style="fill: none; stroke: #000000; stroke-width: 0.8; stroke-linejoin: miter; stroke-linecap: square"/>
   </g>
   <g id="patch_26">
    <path d="M 324 129.6 
L 760.695652 129.6 
" style="fill: none; stroke: #000000; stroke-width: 0.8; stroke-linejoin: miter; stroke-linecap: square"/>
   </g>
   <g id="legend_1">
    <g id="patch_27">
     <path d="M 331 369.188235 
L 484.348438 369.188235 
Q 486.348438 369.188235 486.348438 367.188235 
L 486.348438 338.831985 
Q 486.348438 336.831985 484.348438 336.831985 
L 331 336.831985 
Q 329 336.831985 329 338.831985 
L 329 367.188235 
Q 329 369.188235 331 369.188235 
z
" style="fill: #ffffff; opacity: 0.8; stroke: #cccccc; stroke-linejoin: miter"/>
    </g>
    <g id="patch_28">
     <path d="M 333 348.430423 
L 341 348.430423 
L 341 341.430423 
L 333 341.430423 
z
" style="fill: #b22222; opacity: 0.8"/>
    </g>
    <g id="text_5">
     <!-- rank set 1 -->
     <g transform="translate(349 348.430423) scale(0.1 -0.1)">
      <defs>
       <path id="DejaVuSans-72" d="M 2631 2963 
Q 2534 3019 2420 3045 
Q 2306 3072 2169 3072 
Q 1681 3072 1420 2755 
Q 1159 2438 1159 1844 
L 1159 0 
L 581 0 
L 581 3500 
L 1159 3500 
L 1159 2956 
Q 1341 3275 1631 3429 
Q 1922 3584 2338 3584 
Q 2397 3584 2469 3576 
Q 2541 3569 2628 3553 
L 2631 2963 
z
" transform="scale(0.015625)"/>
       <path id="DejaVuSans-61" d="M 2194 1759 
Q 1497 1759 1228 1600 
Q 959 1441 959 1056 
Q 959 750 1161 570 
Q 1363 391 1709 391 
Q 2188 391 2477 730 
Q 2766 1069 2766 1631 
L 2766 1759 
L 2194 1759 
z
M 3341 1997 
L 3341 0 
L 2766 0 
L 2766 531 
Q 2569 213 2275 61 
Q 1981 -91 1556 -91 
Q 1019 -91 701 211 
Q 384 513 384 1019 
Q 384 1609 779 1909 
Q 1175 2209 1959 2209 
L 2766 2209 
L 2766 2266 
Q 2766 2663 2505 2880 
Q 2244 3097 1772 3097 
Q 1472 3097 1187 3025 
Q 903 2953 641 2809 
L 641 3341 
Q 956 3463 1253 3523 
Q 1550 3584 1831 3584 
Q 2591 3584 2966 3190 
Q 3341 2797 3341 1997 
z
" transform="scale(0.015625)"/>
       <path id="DejaVuSans-6e" d="M 3513 2113 
L 3513 0 
L 2938 0 
L 2938 2094 
Q 2938 2591 2744 2837 
Q 2550 3084 2163 3084 
Q 1697 3084 1428 2787 
Q 1159 2491 1159 1978 
L 1159 0 
L 581 0 
L 581 3500 
L 1159 3500 
L 1159 2956 
Q 1366 3272 1645 3428 
Q 1925 3584 2291 3584 
Q 2894 3584 3203 3211 
Q 3513 2838 3513 2113 
z
" transform="scale(0.015625)"/>
       <path id="DejaVuSans-6b" d="M 581 4863 
L 1159 4863 
L 1159 1991 
L 2875 3500 
L 3609 3500 
L 1753 1863 
L 3688 0 
L 2938 0 
L 1159 1709 
L 1159 0 
L 581 0 
L 581 4863 
z
" transform="scale(0.015625)"/>
       <path id="DejaVuSans-20" transform="scale(0.015625)"/>
       <path id="DejaVuSans-73" d="M 2834 3397 
L 2834 2853 
Q 2591 2978 2328 3040 
Q 2066 3103 1784 3103 
Q 1356 3103 1142 2972 
Q 928 2841 928 2578 
Q 928 2378 1081 2264 
Q 1234 2150 1697 2047 
L 1894 2003 
Q 2506 1872 2764 1633 
Q 3022 1394 3022 966 
Q 3022 478 2636 193 
Q 2250 -91 1575 -91 
Q 1294 -91 989 -36 
Q 684 19 347 128 
L 347 722 
Q 666 556 975 473 
Q 1284 391 1588 391 
Q 1994 391 2212 530 
Q 2431 669 2431 922 
Q 2431 1156 2273 1281 
Q 2116 1406 1581 1522 
L 1381 1569 
Q 847 1681 609 1914 
Q 372 2147 372 2553 
Q 372 3047 722 3315 
Q 1072 3584 1716 3584 
Q 2034 3584 2315 3537 
Q 2597 3491 2834 3397 
z
" transform="scale(0.015625)"/>
       <path id="DejaVuSans-65" d="M 3597 1894 
L 3597 1613 
L 953 1613 
Q 991 1019 1311 708 
Q 1631 397 2203 397 
Q 2534 397 2845 478 
Q 3156 559 3463 722 
L 3463 178 
Q 3153 47 2828 -22 
Q 2503 -91 2169 -91 
Q 1331 -91 842 396 
Q 353 884 353 1716 
Q 353 2575 817 3079 
Q 1281 3584 2069 3584 
Q 2775 3584 3186 3129 
Q 3597 2675 3597 1894 
z
M 3022 2063 
Q 3016 2534 2758 2815 
Q 2500 3097 2075 3097 
Q 1594 3097 1305 2825 
Q 1016 2553 972 2059 
L 3022 2063 
z
" transform="scale(0.015625)"/>
       <path id="DejaVuSans-74" d="M 1172 4494 
L 1172 3500 
L 2356 3500 
L 2356 3053 
L 1172 3053 
L 1172 1153 
Q 1172 725 1289 603 
Q 1406 481 1766 481 
L 2356 481 
L 2356 0 
L 1766 0 
Q 1100 0 847 248 
Q 594 497 594 1153 
L 594 3053 
L 172 3053 
L 172 3500 
L 594 3500 
L 594 4494 
L 1172 4494 
z
" transform="scale(0.015625)"/>
      </defs>
      <use xlink:href="#DejaVuSans-72"/>
      <use xlink:href="#DejaVuSans-61" x="41.113281"/>
      <use xlink:href="#DejaVuSans-6e" x="102.392578"/>
      <use xlink:href="#DejaVuSans-6b" x="165.771484"/>
      <use xlink:href="#DejaVuSans-20" x="223.681641"/>
      <use xlink:href="#DejaVuSans-73" x="255.46875"/>
      <use xlink:href="#DejaVuSans-65" x="307.568359"/>
      <use xlink:href="#DejaVuSans-74" x="369.091797"/>
      <use xlink:href="#DejaVuSans-20" x="408.300781"/>
      <use xlink:href="#DejaVuSans-31" x="440.087891"/>
     </g>
    </g>
    <g id="patch_29">
     <path d="M 333 363.108548 
L 341 363.108548 
L 341 356.108548 
L 333 356.108548 
z
" style="fill: #808080; fill-opacity: 0.3; stroke: #808080; stroke-opacity: 0.3; stroke-linejoin: miter"/>
    </g>
    <g id="text_6">
     <!-- expected under uniformity -->
     <g transform="translate(349 363.108548) scale(0.1 -0.1)">
      <defs>
       <path id="DejaVuSans-78" d="M 3513 3500 
L 2247 1797 
L 3578 0 
L 2900 0 
L 1881 1375 
L 863 0 
L 184 0 
L 1544 1831 
L 300 3500 
L 978 3500 
L 1906 2253 
L 2834 3500 
L 3513 3500 
z
" transform="scale(0.015625)"/>
       <path id="DejaVuSans-70" d="M 1159 525 
L 1159 -1331 
L 581 -1331 
L 581 3500 
L 1159 3500 
L 1159 2969 
Q 1341 3281 1617 3432 
Q 1894 3584 2278 3584 
Q 2916 3584 3314 3078 
Q 3713 2572 3713 1747 
Q 3713 922 3314 415 
Q 2916 -91 2278 -91 
Q 1894 -91 1617 61 
Q 1341 213 1159 525 
z
M 3116 1747 
Q 3116 2381 2855 2742 
Q 2594 3103 2138 3103 
Q 1681 3103 1420 2742 
Q 1159 2381 1159 1747 
Q 1159 1113 1420 752 
Q 1681 391 2138 391 
Q 2594 391 2855 752 
Q 3116 1113 3116 1747 
z
" transform="scale(0.015625)"/>
       <path id="DejaVuSans-63" d="M 3122 3366 
L 3122 2828 
Q 2878 2963 2633 3030 
Q 2388 3097 2138 3097 
Q 1578 3097 1268 2742 
Q 959 2388 959 1747 
Q 959 1106 1268 751 
Q 1578 397 2138 397 
Q 2388 397 2633 464 
Q 2878 531 3122 666 
L 3122 134 
Q 2881 22 2623 -34 
Q 2366 -91 2075 -91 
Q 1284 -91 818 406 
Q 353 903 353 1747 
Q 353 2603 823 3093 
Q 1294 3584 2113 3584 
Q 2378 3584 2631 3529 
Q 2884 3475 3122 3366 
z
" transform="scale(0.015625)"/>
       <path id="DejaVuSans-64" d="M 2906 2969 
L 2906 4863 
L 3481 4863 
L 3481 0 
L 2906 0 
L 2906 525 
Q 2725 213 2448 61 
Q 2172 -91 1784 -91 
Q 1150 -91 751 415 
Q 353 922 353 1747 
Q 353 2572 751 3078 
Q 1150 3584 1784 3584 
Q 2172 3584 2448 3432 
Q 2725 3281 2906 2969 
z
M 947 1747 
Q 947 1113 1208 752 
Q 1469 391 1925 391 
Q 2381 391 2643 752 
Q 2906 1113 2906 1747 
Q 2906 2381 2643 2742 
Q 2381 3103 1925 3103 
Q 1469 3103 1208 2742 
Q 947 2381 947 1747 
z
" transform="scale(0.015625)"/>
       <path id="DejaVuSans-75" d="M 544 1381 
L 544 3500 
L 1119 3500 
L 1119 1403 
Q 1119 906 1312 657 
Q 1506 409 1894 409 
Q 2359 409 2629 706 
Q 2900 1003 2900 1516 
L 2900 3500 
L 3475 3500 
L 3475 0 
L 2900 0 
L 2900 538 
Q 2691 219 2414 64 
Q 2138 -91 1772 -91 
Q 1169 -91 856 284 
Q 544 659 544 1381 
z
M 1991 3584 
L 1991 3584 
z
" transform="scale(0.015625)"/>
       <path id="DejaVuSans-69" d="M 603 3500 
L 1178 3500 
L 1178 0 
L 603 0 
L 603 3500 
z
M 603 4863 
L 1178 4863 
L 1178 4134 
L 603 4134 
L 603 4863 
z
" transform="scale(0.015625)"/>
       <path id="DejaVuSans-66" d="M 2375 4863 
L 2375 4384 
L 1825 4384 
Q 1516 4384 1395 4259 
Q 1275 4134 1275 3809 
L 1275 3500 
L 2222 3500 
L 2222 3053 
L 1275 3053 
L 1275 0 
L 697 0 
L 697 3053 
L 147 3053 
L 147 3500 
L 697 3500 
L 697 3744 
Q 697 4328 969 4595 
Q 1241 4863 1831 4863 
L 2375 4863 
z
" transform="scale(0.015625)"/>
       <path id="DejaVuSans-6f" d="M 1959 3097 
Q 1497 3097 1228 2736 
Q 959 2375 959 1747 
Q 959 1119 1226 758 
Q 1494 397 1959 397 
Q 2419 397 2687 759 
Q 2956 1122 2956 1747 
Q 2956 2369 2687 2733 
Q 2419 3097 1959 3097 
z
M 1959 3584 
Q 2709 3584 3137 3096 
Q 3566 2609 3566 1747 
Q 3566 888 3137 398 
Q 2709 -91 1959 -91 
Q 1206 -91 779 398 
Q 353 888 353 1747 
Q 353 2609 779 3096 
Q 1206 3584 1959 3584 
z
" transform="scale(0.015625)"/>
       <path id="DejaVuSans-6d" d="M 3328 2828 
Q 3544 3216 3844 3400 
Q 4144 3584 4550 3584 
Q 5097 3584 5394 3201 
Q 5691 2819 5691 2113 
L 5691 0 
L 5113 0 
L 5113 2094 
Q 5113 2597 4934 2840 
Q 4756 3084 4391 3084 
Q 3944 3084 3684 2787 
Q 3425 2491 3425 1978 
L 3425 0 
L 2847 0 
L 2847 2094 
Q 2847 2600 2669 2842 
Q 2491 3084 2119 3084 
Q 1678 3084 1418 2786 
Q 1159 2488 1159 1978 
L 1159 0 
L 581 0 
L 581 3500 
L 1159 3500 
L 1159 2956 
Q 1356 3278 1631 3431 
Q 1906 3584 2284 3584 
Q 2666 3584 2933 3390 
Q 3200 3197 3328 2828 
z
" transform="scale(0.015625)"/>
       <path id="DejaVuSans-79" d="M 2059 -325 
Q 1816 -950 1584 -1140 
Q 1353 -1331 966 -1331 
L 506 -1331 
L 506 -850 
L 844 -850 
Q 1081 -850 1212 -737 
Q 1344 -625 1503 -206 
L 1606 56 
L 191 3500 
L 800 3500 
L 1894 763 
L 2988 3500 
L 3597 3500 
L 2059 -325 
z
" transform="scale(0.015625)"/>
      </defs>
      <use xlink:href="#DejaVuSans-65"/>
      <use xlink:href="#DejaVuSans-78" x="59.773438"/>
      <use xlink:href="#DejaVuSans-70" x="118.953125"/>
      <use xlink:href="#DejaVuSans-65" x="182.429688"/>
      <use xlink:href="#DejaVuSans-63" x="243.953125"/>
      <use xlink:href="#DejaVuSans-74" x="298.933594"/>
      <use xlink:href="#DejaVuSans-65" x="338.142578"/>
      <use xlink:href="#DejaVuSans-64" x="399.666016"/>
      <use xlink:href="#DejaVuSans-20" x="463.142578"/>
      <use xlink:href="#DejaVuSans-75" x="494.929688"/>
      <use xlink:href="#DejaVuSans-6e" x="558.308594"/>
      <use xlink:href="#DejaVuSans-64" x="621.6875"/>
      <use xlink:href="#DejaVuSans-65" x="685.164062"/>
      <use xlink:href="#DejaVuSans-72" x="746.6875"/>
      <use xlink:href="#DejaVuSans-20" x="787.800781"/>
      <use xlink:href="#DejaVuSans-75" x="819.587891"/>
      <use xlink:href="#DejaVuSans-6e" x="882.966797"/>
      <use xlink:href="#DejaVuSans-69" x="946.345703"/>
      <use xlink:href="#DejaVuSans-66" x="974.128906"/>
      <use xlink:href="#DejaVuSans-6f" x="1009.333984"/>
      <use xlink:href="#DejaVuSans-72" x="1070.515625"/>
      <use xlink:href="#DejaVuSans-6d" x="1109.878906"/>
      <use xlink:href="#DejaVuSans-69" x="1207.291016"/>
      <use xlink:href="#DejaVuSans-74" x="1235.074219"/>
      <use xlink:href="#DejaVuSans-79" x="1274.283203"/>
     </g>
    </g>
   </g>
  </g>
  <g id="axes_2">
   <g id="patch_30">
    <path d="M 848.034783 374.188235 
L 1284.730435 374.188235 
L 1284.730435 129.6 
L 848.034783 129.6 
z
" style="fill: #ffffff"/>
   </g>
   <g id="patch_31">
    <path d="M 889.229739 374.188235 
L 906.837671 374.188235 
L 906.837671 149.420433 
L 889.229739 149.420433 
z
" clip-path="url(#p9b9d132670)" style="fill: #b22222; opacity: 0.8"/>
   </g>
   <g id="patch_32">
    <path d="M 906.837671 374.188235 
L 924.445603 374.188235 
L 924.445603 206.634056 
L 906.837671 206.634056 
z
" clip-path="url(#p9b9d132670)" style="fill: #b22222; opacity: 0.8"/>
   </g>
   <g id="patch_33">
    <path d="M 924.445603 374.188235 
L 942.053539 374.188235 
L 942.053539 272.021053 
L 924.445603 272.021053 
z
" clip-path="url(#p9b9d132670)" style="fill: #b22222; opacity: 0.8"/>
   </g>
   <g id="patch_34">
    <path d="M 942.053539 374.188235 
L 959.661466 374.188235 
L 959.661466 280.194427 
L 942.053539 280.194427 
z
" clip-path="url(#p9b9d132670)" style="fill: #b22222; opacity: 0.8"/>
   </g>
   <g id="patch_35">
    <path d="M 959.661466 374.188235 
L 977.269402 374.188235 
L 977.269402 288.367802 
L 959.661466 288.367802 
z
" clip-path="url(#p9b9d132670)" style="fill: #b22222; opacity: 0.8"/>
   </g>
   <g id="patch_36">
    <path d="M 977.269402 374.188235 
L 994.877338 374.188235 
L 994.877338 312.887926 
L 977.269402 312.887926 
z
" clip-path="url(#p9b9d132670)" style="fill: #b22222; opacity: 0.8"/>
   </g>
   <g id="patch_37">
    <path d="M 994.877338 374.188235 
L 1012.485266 374.188235 
L 1012.485266 312.887926 
L 994.877338 312.887926 
z
" clip-path="url(#p9b9d132670)" style="fill: #b22222; opacity: 0.8"/>
   </g>
   <g id="patch_38">
    <path d="M 1012.485266 374.188235 
L 1030.093202 374.188235 
L 1030.093202 329.234675 
L 1012.485266 329.234675 
z
" clip-path="url(#p9b9d132670)" style="fill: #b22222; opacity: 0.8"/>
   </g>
   <g id="patch_39">
    <path d="M 1030.093202 374.188235 
L 1047.701129 374.188235 
L 1047.701129 308.801238 
L 1030.093202 308.801238 
z
" clip-path="url(#p9b9d132670)" style="fill: #b22222; opacity: 0.8"/>
   </g>
   <g id="patch_40">
    <path d="M 1047.701129 374.188235 
L 1065.309065 374.188235 
L 1065.309065 251.587616 
L 1047.701129 251.587616 
z
" clip-path="url(#p9b9d132670)" style="fill: #b22222; opacity: 0.8"/>
   </g>
   <g id="patch_41">
    <path d="M 1065.309065 374.188235 
L 1082.917001 374.188235 
L 1082.917001 304.714551 
L 1065.309065 304.714551 
z
" clip-path="url(#p9b9d132670)" style="fill: #b22222; opacity: 0.8"/>
   </g>
   <g id="patch_42">
    <path d="M 1082.917001 374.188235 
L 1100.524938 374.188235 
L 1100.524938 312.887926 
L 1082.917001 312.887926 
z
" clip-path="url(#p9b9d132670)" style="fill: #b22222; opacity: 0.8"/>
   </g>
   <g id="patch_43">
    <path d="M 1100.524938 374.188235 
L 1118.132856 374.188235 
L 1118.132856 329.234675 
L 1100.524938 329.234675 
z
" clip-path="url(#p9b9d132670)" style="fill: #b22222; opacity: 0.8"/>
   </g>
   <g id="patch_44">
    <path d="M 1118.132856 374.188235 
L 1135.740792 374.188235 
L 1135.740792 300.627864 
L 1118.132856 300.627864 
z
" clip-path="url(#p9b9d132670)" style="fill: #b22222; opacity: 0.8"/>
   </g>
   <g id="patch_45">
    <path d="M 1135.740792 374.188235 
L 1153.348728 374.188235 
L 1153.348728 300.627864 
L 1135.740792 300.627864 
z
" clip-path="url(#p9b9d132670)" style="fill: #b22222; opacity: 0.8"/>
   </g>
   <g id="patch_46">
    <path d="M 1153.348728 374.188235 
L 1170.956664 374.188235 
L 1170.956664 272.021053 
L 1153.348728 272.021053 
z
" clip-path="url(#p9b9d132670)" style="fill: #b22222; opacity: 0.8"/>
   </g>
   <g id="patch_47">
    <path d="M 1170.956664 374.188235 
L 1188.564601 374.188235 
L 1188.564601 312.887926 
L 1170.956664 312.887926 
z
" clip-path="url(#p9b9d132670)" style="fill: #b22222; opacity: 0.8"/>
   </g>
   <g id="patch_48">
    <path d="M 1188.564601 374.188235 
L 1206.172519 374.188235 
L 1206.172519 292.454489 
L 1188.564601 292.454489 
z
" clip-path="url(#p9b9d132670)" style="fill: #b22222; opacity: 0.8"/>
   </g>
   <g id="patch_49">
    <path d="M 1206.172519 374.188235 
L 1223.780473 374.188235 
L 1223.780473 161.680495 
L 1206.172519 161.680495 
z
" clip-path="url(#p9b9d132670)" style="fill: #b22222; opacity: 0.8"/>
   </g>
   <g id="patch_50">
    <path d="M 1223.780473 374.188235 
L 1241.388391 374.188235 
L 1241.388391 141.247059 
L 1223.780473 141.247059 
z
" clip-path="url(#p9b9d132670)" style="fill: #b22222; opacity: 0.8"/>
   </g>
   <g id="PolyCollection_2">
    <defs>
     <path id="m4385058331" d="M 884.426087 -857.019195 
L 884.426087 -754.852012 
L 903.579405 -754.852012 
L 922.732723 -754.852012 
L 941.886041 -754.852012 
L 961.039359 -754.852012 
L 980.192677 -754.852012 
L 999.345995 -754.852012 
L 1018.499314 -754.852012 
L 1037.652632 -754.852012 
L 1056.80595 -754.852012 
L 1075.959268 -754.852012 
L 1095.112586 -754.852012 
L 1114.265904 -754.852012 
L 1133.419222 -754.852012 
L 1152.57254 -754.852012 
L 1171.725858 -754.852012 
L 1190.879176 -754.852012 
L 1210.032494 -754.852012 
L 1229.185812 -754.852012 
L 1248.33913 -754.852012 
L 1248.33913 -857.019195 
L 1248.33913 -857.019195 
L 1229.185812 -857.019195 
L 1210.032494 -857.019195 
L 1190.879176 -857.019195 
L 1171.725858 -857.019195 
L 1152.57254 -857.019195 
L 1133.419222 -857.019195 
L 1114.265904 -857.019195 
L 1095.112586 -857.019195 
L 1075.959268 -857.019195 
L 1056.80595 -857.019195 
L 1037.652632 -857.019195 
L 1018.499314 -857.019195 
L 999.345995 -857.019195 
L 980.192677 -857.019195 
L 961.039359 -857.019195 
L 941.886041 -857.019195 
L 922.732723 -857.019195 
L 903.579405 -857.019195 
L 884.426087 -857.019195 
z
" style="stroke: #808080; stroke-opacity: 0.3"/>
    </defs>
    <g clip-path="url(#p9b9d132670)">
     <use xlink:href="#m4385058331" x="0" y="1080" style="fill: #808080; fill-opacity: 0.3; stroke: #808080; stroke-opacity: 0.3"/>
    </g>
   </g>
   <g id="matplotlib.axis_3">
    <g id="xtick_4">
     <g id="line2d_4">
      <g>
       <use xlink:href="#m7f60092319" x="884.426087" y="374.188235" style="stroke: #000000; stroke-width: 0.8"/>
      </g>
     </g>
     <g id="text_7">
      <!-- 0 -->
      <g transform="translate(881.244837 388.786673) scale(0.1 -0.1)">
       <use xlink:href="#DejaVuSans-30"/>
      </g>
     </g>
    </g>
    <g id="xtick_5">
     <g id="line2d_5">
      <g>
       <use xlink:href="#m7f60092319" x="1066.382609" y="374.188235" style="stroke: #000000; stroke-width: 0.8"/>
      </g>
     </g>
     <g id="text_8">
      <!-- 5000 -->
      <g transform="translate(1053.657609 388.786673) scale(0.1 -0.1)">
       <use xlink:href="#DejaVuSans-35"/>
       <use xlink:href="#DejaVuSans-30" x="63.623047"/>
       <use xlink:href="#DejaVuSans-30" x="127.246094"/>
       <use xlink:href="#DejaVuSans-30" x="190.869141"/>
      </g>
     </g>
    </g>
    <g id="xtick_6">
     <g id="line2d_6">
      <g>
       <use xlink:href="#m7f60092319" x="1248.33913" y="374.188235" style="stroke: #000000; stroke-width: 0.8"/>
      </g>
     </g>
     <g id="text_9">
      <!-- 10000 -->
      <g transform="translate(1232.43288 388.786673) scale(0.1 -0.1)">
       <use xlink:href="#DejaVuSans-31"/>
       <use xlink:href="#DejaVuSans-30" x="63.623047"/>
       <use xlink:href="#DejaVuSans-30" x="127.246094"/>
       <use xlink:href="#DejaVuSans-30" x="190.869141"/>
       <use xlink:href="#DejaVuSans-30" x="254.492188"/>
      </g>
     </g>
    </g>
    <g id="text_10">
     <!-- b2 -->
     <g transform="translate(1060.02714 402.464798) scale(0.1 -0.1)">
      <defs>
       <path id="DejaVuSans-32" d="M 1228 531 
L 3431 531 
L 3431 0 
L 469 0 
L 469 531 
Q 828 903 1448 1529 
Q 2069 2156 2228 2338 
Q 2531 2678 2651 2914 
Q 2772 3150 2772 3378 
Q 2772 3750 2511 3984 
Q 2250 4219 1831 4219 
Q 1534 4219 1204 4116 
Q 875 4013 500 3803 
L 500 4441 
Q 881 4594 1212 4672 
Q 1544 4750 1819 4750 
Q 2544 4750 2975 4387 
Q 3406 4025 3406 3419 
Q 3406 3131 3298 2873 
Q 3191 2616 2906 2266 
Q 2828 2175 2409 1742 
Q 1991 1309 1228 531 
z
" transform="scale(0.015625)"/>
      </defs>
      <use xlink:href="#DejaVuSans-62"/>
      <use xlink:href="#DejaVuSans-32" x="63.476562"/>
     </g>
    </g>
   </g>
   <g id="matplotlib.axis_4"/>
   <g id="patch_51">
    <path d="M 848.034783 374.188235 
L 848.034783 129.6 
" style="fill: none; stroke: #000000; stroke-width: 0.8; stroke-linejoin: miter; stroke-linecap: square"/>
   </g>
   <g id="patch_52">
    <path d="M 1284.730435 374.188235 
L 1284.730435 129.6 
" style="fill: none; stroke: #000000; stroke-width: 0.8; stroke-linejoin: miter; stroke-linecap: square"/>
   </g>
   <g id="patch_53">
    <path d="M 848.034783 374.188235 
L 1284.730435 374.188235 
" style="fill: none; stroke: #000000; stroke-width: 0.8; stroke-linejoin: miter; stroke-linecap: square"/>
   </g>
   <g id="patch_54">
    <path d="M 848.034783 129.6 
L 1284.730435 129.6 
" style="fill: none; stroke: #000000; stroke-width: 0.8; stroke-linejoin: miter; stroke-linecap: square"/>
   </g>
  </g>
  <g id="axes_3">
   <g id="patch_55">
    <path d="M 1372.069565 374.188235 
L 1808.765217 374.188235 
L 1808.765217 129.6 
L 1372.069565 129.6 
z
" style="fill: #ffffff"/>
   </g>
   <g id="patch_56">
    <path d="M 1408.497261 374.188235 
L 1426.449091 374.188235 
L 1426.449091 244.174555 
L 1408.497261 244.174555 
z
" clip-path="url(#p5629b825ac)" style="fill: #b22222; opacity: 0.8"/>
   </g>
   <g id="patch_57">
    <path d="M 1426.449091 374.188235 
L 1444.400921 374.188235 
L 1444.400921 184.584952 
L 1426.449091 184.584952 
z
" clip-path="url(#p5629b825ac)" style="fill: #b22222; opacity: 0.8"/>
   </g>
   <g id="patch_58">
    <path d="M 1444.400921 374.188235 
L 1462.352753 374.188235 
L 1462.352753 173.750479 
L 1444.400921 173.750479 
z
" clip-path="url(#p5629b825ac)" style="fill: #b22222; opacity: 0.8"/>
   </g>
   <g id="patch_59">
    <path d="M 1462.352753 374.188235 
L 1480.304581 374.188235 
L 1480.304581 200.836662 
L 1462.352753 200.836662 
z
" clip-path="url(#p5629b825ac)" style="fill: #b22222; opacity: 0.8"/>
   </g>
   <g id="patch_60">
    <path d="M 1480.304581 374.188235 
L 1498.256413 374.188235 
L 1498.256413 179.167715 
L 1480.304581 179.167715 
z
" clip-path="url(#p5629b825ac)" style="fill: #b22222; opacity: 0.8"/>
   </g>
   <g id="patch_61">
    <path d="M 1498.256413 374.188235 
L 1516.208245 374.188235 
L 1516.208245 222.505609 
L 1498.256413 222.505609 
z
" clip-path="url(#p5629b825ac)" style="fill: #b22222; opacity: 0.8"/>
   </g>
   <g id="patch_62">
    <path d="M 1516.208245 374.188235 
L 1534.160077 374.188235 
L 1534.160077 260.426265 
L 1516.208245 260.426265 
z
" clip-path="url(#p5629b825ac)" style="fill: #b22222; opacity: 0.8"/>
   </g>
   <g id="patch_63">
    <path d="M 1534.160077 374.188235 
L 1552.111901 374.188235 
L 1552.111901 314.598632 
L 1534.160077 314.598632 
z
" clip-path="url(#p5629b825ac)" style="fill: #b22222; opacity: 0.8"/>
   </g>
   <g id="patch_64">
    <path d="M 1552.111901 374.188235 
L 1570.063742 374.188235 
L 1570.063742 227.922845 
L 1552.111901 227.922845 
z
" clip-path="url(#p5629b825ac)" style="fill: #b22222; opacity: 0.8"/>
   </g>
   <g id="patch_65">
    <path d="M 1570.063742 374.188235 
L 1588.015565 374.188235 
L 1588.015565 271.260739 
L 1570.063742 271.260739 
z
" clip-path="url(#p5629b825ac)" style="fill: #b22222; opacity: 0.8"/>
   </g>
   <g id="patch_66">
    <path d="M 1588.015565 374.188235 
L 1605.967389 374.188235 
L 1605.967389 276.677975 
L 1588.015565 276.677975 
z
" clip-path="url(#p5629b825ac)" style="fill: #b22222; opacity: 0.8"/>
   </g>
   <g id="patch_67">
    <path d="M 1605.967389 374.188235 
L 1623.91923 374.188235 
L 1623.91923 271.260739 
L 1605.967389 271.260739 
z
" clip-path="url(#p5629b825ac)" style="fill: #b22222; opacity: 0.8"/>
   </g>
   <g id="patch_68">
    <path d="M 1623.91923 374.188235 
L 1641.871053 374.188235 
L 1641.871053 238.757319 
L 1623.91923 238.757319 
z
" clip-path="url(#p5629b825ac)" style="fill: #b22222; opacity: 0.8"/>
   </g>
   <g id="patch_69">
    <path d="M 1641.871053 374.188235 
L 1659.822894 374.188235 
L 1659.822894 309.181395 
L 1641.871053 309.181395 
z
" clip-path="url(#p5629b825ac)" style="fill: #b22222; opacity: 0.8"/>
   </g>
   <g id="patch_70">
    <path d="M 1659.822894 374.188235 
L 1677.774717 374.188235 
L 1677.774717 287.512449 
L 1659.822894 287.512449 
z
" clip-path="url(#p5629b825ac)" style="fill: #b22222; opacity: 0.8"/>
   </g>
   <g id="patch_71">
    <path d="M 1677.774717 374.188235 
L 1695.726541 374.188235 
L 1695.726541 303.764159 
L 1677.774717 303.764159 
z
" clip-path="url(#p5629b825ac)" style="fill: #b22222; opacity: 0.8"/>
   </g>
   <g id="patch_72">
    <path d="M 1695.726541 374.188235 
L 1713.678364 374.188235 
L 1713.678364 222.505609 
L 1695.726541 222.505609 
z
" clip-path="url(#p5629b825ac)" style="fill: #b22222; opacity: 0.8"/>
   </g>
   <g id="patch_73">
    <path d="M 1713.678364 374.188235 
L 1731.630223 374.188235 
L 1731.630223 217.088372 
L 1713.678364 217.088372 
z
" clip-path="url(#p5629b825ac)" style="fill: #b22222; opacity: 0.8"/>
   </g>
   <g id="patch_74">
    <path d="M 1731.630223 374.188235 
L 1749.582046 374.188235 
L 1749.582046 141.247059 
L 1731.630223 141.247059 
z
" clip-path="url(#p5629b825ac)" style="fill: #b22222; opacity: 0.8"/>
   </g>
   <g id="patch_75">
    <path d="M 1749.582046 374.188235 
L 1767.53387 374.188235 
L 1767.53387 227.922845 
L 1749.582046 227.922845 
z
" clip-path="url(#p5629b825ac)" style="fill: #b22222; opacity: 0.8"/>
   </g>
   <g id="PolyCollection_3">
    <defs>
     <path id="md3f68e0f60" d="M 1408.46087 -906.249521 
L 1408.46087 -770.818605 
L 1427.614188 -770.818605 
L 1446.767506 -770.818605 
L 1465.920824 -770.818605 
L 1485.074142 -770.818605 
L 1504.22746 -770.818605 
L 1523.380778 -770.818605 
L 1542.534096 -770.818605 
L 1561.687414 -770.818605 
L 1580.840732 -770.818605 
L 1599.99405 -770.818605 
L 1619.147368 -770.818605 
L 1638.300686 -770.818605 
L 1657.454005 -770.818605 
L 1676.607323 -770.818605 
L 1695.760641 -770.818605 
L 1714.913959 -770.818605 
L 1734.067277 -770.818605 
L 1753.220595 -770.818605 
L 1772.373913 -770.818605 
L 1772.373913 -906.249521 
L 1772.373913 -906.249521 
L 1753.220595 -906.249521 
L 1734.067277 -906.249521 
L 1714.913959 -906.249521 
L 1695.760641 -906.249521 
L 1676.607323 -906.249521 
L 1657.454005 -906.249521 
L 1638.300686 -906.249521 
L 1619.147368 -906.249521 
L 1599.99405 -906.249521 
L 1580.840732 -906.249521 
L 1561.687414 -906.249521 
L 1542.534096 -906.249521 
L 1523.380778 -906.249521 
L 1504.22746 -906.249521 
L 1485.074142 -906.249521 
L 1465.920824 -906.249521 
L 1446.767506 -906.249521 
L 1427.614188 -906.249521 
L 1408.46087 -906.249521 
z
" style="stroke: #808080; stroke-opacity: 0.3"/>
    </defs>
    <g clip-path="url(#p5629b825ac)">
     <use xlink:href="#md3f68e0f60" x="0" y="1080" style="fill: #808080; fill-opacity: 0.3; stroke: #808080; stroke-opacity: 0.3"/>
    </g>
   </g>
   <g id="matplotlib.axis_5">
    <g id="xtick_7">
     <g id="line2d_7">
      <g>
       <use xlink:href="#m7f60092319" x="1408.46087" y="374.188235" style="stroke: #000000; stroke-width: 0.8"/>
      </g>
     </g>
     <g id="text_11">
      <!-- 0 -->
      <g transform="translate(1405.27962 388.786673) scale(0.1 -0.1)">
       <use xlink:href="#DejaVuSans-30"/>
      </g>
     </g>
    </g>
    <g id="xtick_8">
     <g id="line2d_8">
      <g>
       <use xlink:href="#m7f60092319" x="1590.417391" y="374.188235" style="stroke: #000000; stroke-width: 0.8"/>
      </g>
     </g>
     <g id="text_12">
      <!-- 5000 -->
      <g transform="translate(1577.692391 388.786673) scale(0.1 -0.1)">
       <use xlink:href="#DejaVuSans-35"/>
       <use xlink:href="#DejaVuSans-30" x="63.623047"/>
       <use xlink:href="#DejaVuSans-30" x="127.246094"/>
       <use xlink:href="#DejaVuSans-30" x="190.869141"/>
      </g>
     </g>
    </g>
    <g id="xtick_9">
     <g id="line2d_9">
      <g>
       <use xlink:href="#m7f60092319" x="1772.373913" y="374.188235" style="stroke: #000000; stroke-width: 0.8"/>
      </g>
     </g>
     <g id="text_13">
      <!-- 10000 -->
      <g transform="translate(1756.467663 388.786673) scale(0.1 -0.1)">
       <use xlink:href="#DejaVuSans-31"/>
       <use xlink:href="#DejaVuSans-30" x="63.623047"/>
       <use xlink:href="#DejaVuSans-30" x="127.246094"/>
       <use xlink:href="#DejaVuSans-30" x="190.869141"/>
       <use xlink:href="#DejaVuSans-30" x="254.492188"/>
      </g>
     </g>
    </g>
    <g id="text_14">
     <!-- Imitation q -->
     <g transform="translate(1563.318173 402.464798) scale(0.1 -0.1)">
      <defs>
       <path id="DejaVuSans-49" d="M 628 4666 
L 1259 4666 
L 1259 0 
L 628 0 
L 628 4666 
z
" transform="scale(0.015625)"/>
       <path id="DejaVuSans-71" d="M 947 1747 
Q 947 1113 1208 752 
Q 1469 391 1925 391 
Q 2381 391 2643 752 
Q 2906 1113 2906 1747 
Q 2906 2381 2643 2742 
Q 2381 3103 1925 3103 
Q 1469 3103 1208 2742 
Q 947 2381 947 1747 
z
M 2906 525 
Q 2725 213 2448 61 
Q 2172 -91 1784 -91 
Q 1150 -91 751 415 
Q 353 922 353 1747 
Q 353 2572 751 3078 
Q 1150 3584 1784 3584 
Q 2172 3584 2448 3432 
Q 2725 3281 2906 2969 
L 2906 3500 
L 3481 3500 
L 3481 -1331 
L 2906 -1331 
L 2906 525 
z
" transform="scale(0.015625)"/>
      </defs>
      <use xlink:href="#DejaVuSans-49"/>
      <use xlink:href="#DejaVuSans-6d" x="29.492188"/>
      <use xlink:href="#DejaVuSans-69" x="126.904297"/>
      <use xlink:href="#DejaVuSans-74" x="154.6875"/>
      <use xlink:href="#DejaVuSans-61" x="193.896484"/>
      <use xlink:href="#DejaVuSans-74" x="255.175781"/>
      <use xlink:href="#DejaVuSans-69" x="294.384766"/>
      <use xlink:href="#DejaVuSans-6f" x="322.167969"/>
      <use xlink:href="#DejaVuSans-6e" x="383.349609"/>
      <use xlink:href="#DejaVuSans-20" x="446.728516"/>
      <use xlink:href="#DejaVuSans-71" x="478.515625"/>
     </g>
    </g>
   </g>
   <g id="matplotlib.axis_6"/>
   <g id="patch_76">
    <path d="M 1372.069565 374.188235 
L 1372.069565 129.6 
" style="fill: none; stroke: #000000; stroke-width: 0.8; stroke-linejoin: miter; stroke-linecap: square"/>
   </g>
   <g id="patch_77">
    <path d="M 1808.765217 374.188235 
L 1808.765217 129.6 
" style="fill: none; stroke: #000000; stroke-width: 0.8; stroke-linejoin: miter; stroke-linecap: square"/>
   </g>
   <g id="patch_78">
    <path d="M 1372.069565 374.188235 
L 1808.765217 374.188235 
" style="fill: none; stroke: #000000; stroke-width: 0.8; stroke-linejoin: miter; stroke-linecap: square"/>
   </g>
   <g id="patch_79">
    <path d="M 1372.069565 129.6 
L 1808.765217 129.6 
" style="fill: none; stroke: #000000; stroke-width: 0.8; stroke-linejoin: miter; stroke-linecap: square"/>
   </g>
  </g>
  <g id="axes_4">
   <g id="patch_80">
    <path d="M 1896.104348 374.188235 
L 2332.8 374.188235 
L 2332.8 129.6 
L 1896.104348 129.6 
z
" style="fill: #ffffff"/>
   </g>
   <g id="patch_81">
    <path d="M 1940.465348 374.188235 
L 1958.03871 374.188235 
L 1958.03871 169.360649 
L 1940.465348 169.360649 
z
" clip-path="url(#pdb517f8537)" style="fill: #b22222; opacity: 0.8"/>
   </g>
   <g id="patch_82">
    <path d="M 1958.03871 374.188235 
L 1975.612071 374.188235 
L 1975.612071 213.539148 
L 1958.03871 213.539148 
z
" clip-path="url(#pdb517f8537)" style="fill: #b22222; opacity: 0.8"/>
   </g>
   <g id="patch_83">
    <path d="M 1975.612071 374.188235 
L 1993.185429 374.188235 
L 1993.185429 269.766329 
L 1975.612071 269.766329 
z
" clip-path="url(#pdb517f8537)" style="fill: #b22222; opacity: 0.8"/>
   </g>
   <g id="patch_84">
    <path d="M 1993.185429 374.188235 
L 2010.758795 374.188235 
L 2010.758795 285.831237 
L 1993.185429 285.831237 
z
" clip-path="url(#pdb517f8537)" style="fill: #b22222; opacity: 0.8"/>
   </g>
   <g id="patch_85">
    <path d="M 2010.758795 374.188235 
L 2028.332152 374.188235 
L 2028.332152 293.863692 
L 2010.758795 293.863692 
z
" clip-path="url(#pdb517f8537)" style="fill: #b22222; opacity: 0.8"/>
   </g>
   <g id="patch_86">
    <path d="M 2028.332152 374.188235 
L 2045.905509 374.188235 
L 2045.905509 285.831237 
L 2028.332152 285.831237 
z
" clip-path="url(#pdb517f8537)" style="fill: #b22222; opacity: 0.8"/>
   </g>
   <g id="patch_87">
    <path d="M 2045.905509 374.188235 
L 2063.478876 374.188235 
L 2063.478876 297.879919 
L 2045.905509 297.879919 
z
" clip-path="url(#pdb517f8537)" style="fill: #b22222; opacity: 0.8"/>
   </g>
   <g id="patch_88">
    <path d="M 2063.478876 374.188235 
L 2081.052233 374.188235 
L 2081.052233 289.847465 
L 2063.478876 289.847465 
z
" clip-path="url(#pdb517f8537)" style="fill: #b22222; opacity: 0.8"/>
   </g>
   <g id="patch_89">
    <path d="M 2081.052233 374.188235 
L 2098.625599 374.188235 
L 2098.625599 301.896146 
L 2081.052233 301.896146 
z
" clip-path="url(#pdb517f8537)" style="fill: #b22222; opacity: 0.8"/>
   </g>
   <g id="patch_90">
    <path d="M 2098.625599 374.188235 
L 2116.198957 374.188235 
L 2116.198957 293.863692 
L 2098.625599 293.863692 
z
" clip-path="url(#pdb517f8537)" style="fill: #b22222; opacity: 0.8"/>
   </g>
   <g id="patch_91">
    <path d="M 2116.198957 374.188235 
L 2133.772314 374.188235 
L 2133.772314 281.81501 
L 2116.198957 281.81501 
z
" clip-path="url(#pdb517f8537)" style="fill: #b22222; opacity: 0.8"/>
   </g>
   <g id="patch_92">
    <path d="M 2133.772314 374.188235 
L 2151.345671 374.188235 
L 2151.345671 313.944828 
L 2133.772314 313.944828 
z
" clip-path="url(#pdb517f8537)" style="fill: #b22222; opacity: 0.8"/>
   </g>
   <g id="patch_93">
    <path d="M 2151.345671 374.188235 
L 2168.919046 374.188235 
L 2168.919046 309.9286 
L 2151.345671 309.9286 
z
" clip-path="url(#pdb517f8537)" style="fill: #b22222; opacity: 0.8"/>
   </g>
   <g id="patch_94">
    <path d="M 2168.919046 374.188235 
L 2186.492404 374.188235 
L 2186.492404 325.993509 
L 2168.919046 325.993509 
z
" clip-path="url(#pdb517f8537)" style="fill: #b22222; opacity: 0.8"/>
   </g>
   <g id="patch_95">
    <path d="M 2186.492404 374.188235 
L 2204.065761 374.188235 
L 2204.065761 325.993509 
L 2186.492404 325.993509 
z
" clip-path="url(#pdb517f8537)" style="fill: #b22222; opacity: 0.8"/>
   </g>
   <g id="patch_96">
    <path d="M 2204.065761 374.188235 
L 2221.639118 374.188235 
L 2221.639118 301.896146 
L 2204.065761 301.896146 
z
" clip-path="url(#pdb517f8537)" style="fill: #b22222; opacity: 0.8"/>
   </g>
   <g id="patch_97">
    <path d="M 2221.639118 374.188235 
L 2239.212476 374.188235 
L 2239.212476 297.879919 
L 2221.639118 297.879919 
z
" clip-path="url(#pdb517f8537)" style="fill: #b22222; opacity: 0.8"/>
   </g>
   <g id="patch_98">
    <path d="M 2239.212476 374.188235 
L 2256.785851 374.188235 
L 2256.785851 281.81501 
L 2239.212476 281.81501 
z
" clip-path="url(#pdb517f8537)" style="fill: #b22222; opacity: 0.8"/>
   </g>
   <g id="patch_99">
    <path d="M 2256.785851 374.188235 
L 2274.35919 374.188235 
L 2274.35919 193.458012 
L 2256.785851 193.458012 
z
" clip-path="url(#pdb517f8537)" style="fill: #b22222; opacity: 0.8"/>
   </g>
   <g id="patch_100">
    <path d="M 2274.35919 374.188235 
L 2291.932565 374.188235 
L 2291.932565 141.247059 
L 2274.35919 141.247059 
z
" clip-path="url(#pdb517f8537)" style="fill: #b22222; opacity: 0.8"/>
   </g>
   <g id="PolyCollection_4">
    <defs>
     <path id="mbed35a0d53" d="M 1932.495652 -854.41217 
L 1932.495652 -754.006491 
L 1951.64897 -754.006491 
L 1970.802288 -754.006491 
L 1989.955606 -754.006491 
L 2009.108924 -754.006491 
L 2028.262243 -754.006491 
L 2047.415561 -754.006491 
L 2066.568879 -754.006491 
L 2085.722197 -754.006491 
L 2104.875515 -754.006491 
L 2124.028833 -754.006491 
L 2143.182151 -754.006491 
L 2162.335469 -754.006491 
L 2181.488787 -754.006491 
L 2200.642105 -754.006491 
L 2219.795423 -754.006491 
L 2238.948741 -754.006491 
L 2258.102059 -754.006491 
L 2277.255378 -754.006491 
L 2296.408696 -754.006491 
L 2296.408696 -854.41217 
L 2296.408696 -854.41217 
L 2277.255378 -854.41217 
L 2258.102059 -854.41217 
L 2238.948741 -854.41217 
L 2219.795423 -854.41217 
L 2200.642105 -854.41217 
L 2181.488787 -854.41217 
L 2162.335469 -854.41217 
L 2143.182151 -854.41217 
L 2124.028833 -854.41217 
L 2104.875515 -854.41217 
L 2085.722197 -854.41217 
L 2066.568879 -854.41217 
L 2047.415561 -854.41217 
L 2028.262243 -854.41217 
L 2009.108924 -854.41217 
L 1989.955606 -854.41217 
L 1970.802288 -854.41217 
L 1951.64897 -854.41217 
L 1932.495652 -854.41217 
z
" style="stroke: #808080; stroke-opacity: 0.3"/>
    </defs>
    <g clip-path="url(#pdb517f8537)">
     <use xlink:href="#mbed35a0d53" x="0" y="1080" style="fill: #808080; fill-opacity: 0.3; stroke: #808080; stroke-opacity: 0.3"/>
    </g>
   </g>
   <g id="matplotlib.axis_7">
    <g id="xtick_10">
     <g id="line2d_10">
      <g>
       <use xlink:href="#m7f60092319" x="1932.495652" y="374.188235" style="stroke: #000000; stroke-width: 0.8"/>
      </g>
     </g>
     <g id="text_15">
      <!-- 0 -->
      <g transform="translate(1929.314402 388.786673) scale(0.1 -0.1)">
       <use xlink:href="#DejaVuSans-30"/>
      </g>
     </g>
    </g>
    <g id="xtick_11">
     <g id="line2d_11">
      <g>
       <use xlink:href="#m7f60092319" x="2114.452174" y="374.188235" style="stroke: #000000; stroke-width: 0.8"/>
      </g>
     </g>
     <g id="text_16">
      <!-- 5000 -->
      <g transform="translate(2101.727174 388.786673) scale(0.1 -0.1)">
       <use xlink:href="#DejaVuSans-35"/>
       <use xlink:href="#DejaVuSans-30" x="63.623047"/>
       <use xlink:href="#DejaVuSans-30" x="127.246094"/>
       <use xlink:href="#DejaVuSans-30" x="190.869141"/>
      </g>
     </g>
    </g>
    <g id="xtick_12">
     <g id="line2d_12">
      <g>
       <use xlink:href="#m7f60092319" x="2296.408696" y="374.188235" style="stroke: #000000; stroke-width: 0.8"/>
      </g>
     </g>
     <g id="text_17">
      <!-- 10000 -->
      <g transform="translate(2280.502446 388.786673) scale(0.1 -0.1)">
       <use xlink:href="#DejaVuSans-31"/>
       <use xlink:href="#DejaVuSans-30" x="63.623047"/>
       <use xlink:href="#DejaVuSans-30" x="127.246094"/>
       <use xlink:href="#DejaVuSans-30" x="190.869141"/>
       <use xlink:href="#DejaVuSans-30" x="254.492188"/>
      </g>
     </g>
    </g>
    <g id="text_18">
     <!-- Initial Adopters -->
     <g transform="translate(2076.590455 402.464798) scale(0.1 -0.1)">
      <defs>
       <path id="DejaVuSans-6c" d="M 603 4863 
L 1178 4863 
L 1178 0 
L 603 0 
L 603 4863 
z
" transform="scale(0.015625)"/>
       <path id="DejaVuSans-41" d="M 2188 4044 
L 1331 1722 
L 3047 1722 
L 2188 4044 
z
M 1831 4666 
L 2547 4666 
L 4325 0 
L 3669 0 
L 3244 1197 
L 1141 1197 
L 716 0 
L 50 0 
L 1831 4666 
z
" transform="scale(0.015625)"/>
      </defs>
      <use xlink:href="#DejaVuSans-49"/>
      <use xlink:href="#DejaVuSans-6e" x="29.492188"/>
      <use xlink:href="#DejaVuSans-69" x="92.871094"/>
      <use xlink:href="#DejaVuSans-74" x="120.654297"/>
      <use xlink:href="#DejaVuSans-69" x="159.863281"/>
      <use xlink:href="#DejaVuSans-61" x="187.646484"/>
      <use xlink:href="#DejaVuSans-6c" x="248.925781"/>
      <use xlink:href="#DejaVuSans-20" x="276.708984"/>
      <use xlink:href="#DejaVuSans-41" x="308.496094"/>
      <use xlink:href="#DejaVuSans-64" x="375.154297"/>
      <use xlink:href="#DejaVuSans-6f" x="438.630859"/>
      <use xlink:href="#DejaVuSans-70" x="499.8125"/>
      <use xlink:href="#DejaVuSans-74" x="563.289062"/>
      <use xlink:href="#DejaVuSans-65" x="602.498047"/>
      <use xlink:href="#DejaVuSans-72" x="664.021484"/>
      <use xlink:href="#DejaVuSans-73" x="705.134766"/>
     </g>
    </g>
   </g>
   <g id="matplotlib.axis_8"/>
   <g id="patch_101">
    <path d="M 1896.104348 374.188235 
L 1896.104348 129.6 
" style="fill: none; stroke: #000000; stroke-width: 0.8; stroke-linejoin: miter; stroke-linecap: square"/>
   </g>
   <g id="patch_102">
    <path d="M 2332.8 374.188235 
L 2332.8 129.6 
" style="fill: none; stroke: #000000; stroke-width: 0.8; stroke-linejoin: miter; stroke-linecap: square"/>
   </g>
   <g id="patch_103">
    <path d="M 1896.104348 374.188235 
L 2332.8 374.188235 
" style="fill: none; stroke: #000000; stroke-width: 0.8; stroke-linejoin: miter; stroke-linecap: square"/>
   </g>
   <g id="patch_104">
    <path d="M 1896.104348 129.6 
L 2332.8 129.6 
" style="fill: none; stroke: #000000; stroke-width: 0.8; stroke-linejoin: miter; stroke-linecap: square"/>
   </g>
  </g>
  <g id="axes_5">
   <g id="patch_105">
    <path d="M 324 667.694118 
L 760.695652 667.694118 
L 760.695652 423.105882 
L 324 423.105882 
z
" style="fill: #ffffff"/>
   </g>
   <g id="patch_106">
    <path d="M 361.919739 667.694118 
L 379.947992 667.694118 
L 379.947992 434.752941 
L 361.919739 434.752941 
z
" clip-path="url(#p616b1871a1)" style="fill: #b22222; opacity: 0.8"/>
   </g>
   <g id="patch_107">
    <path d="M 379.947992 667.694118 
L 397.976245 667.694118 
L 397.976245 509.294118 
L 379.947992 509.294118 
z
" clip-path="url(#p616b1871a1)" style="fill: #b22222; opacity: 0.8"/>
   </g>
   <g id="patch_108">
    <path d="M 397.976245 667.694118 
L 416.004494 667.694118 
L 416.004494 462.705882 
L 397.976245 462.705882 
z
" clip-path="url(#p616b1871a1)" style="fill: #b22222; opacity: 0.8"/>
   </g>
   <g id="patch_109">
    <path d="M 416.004494 667.694118 
L 434.032747 667.694118 
L 434.032747 560.541176 
L 416.004494 560.541176 
z
" clip-path="url(#p616b1871a1)" style="fill: #b22222; opacity: 0.8"/>
   </g>
   <g id="patch_110">
    <path d="M 434.032747 667.694118 
L 452.061 667.694118 
L 452.061 537.247059 
L 434.032747 537.247059 
z
" clip-path="url(#p616b1871a1)" style="fill: #b22222; opacity: 0.8"/>
   </g>
   <g id="patch_111">
    <path d="M 452.061 667.694118 
L 470.089249 667.694118 
L 470.089249 546.564706 
L 452.061 546.564706 
z
" clip-path="url(#p616b1871a1)" style="fill: #b22222; opacity: 0.8"/>
   </g>
   <g id="patch_112">
    <path d="M 470.089249 667.694118 
L 488.117506 667.694118 
L 488.117506 565.2 
L 470.089249 565.2 
z
" clip-path="url(#p616b1871a1)" style="fill: #b22222; opacity: 0.8"/>
   </g>
   <g id="patch_113">
    <path d="M 488.117506 667.694118 
L 506.145755 667.694118 
L 506.145755 574.517647 
L 488.117506 574.517647 
z
" clip-path="url(#p616b1871a1)" style="fill: #b22222; opacity: 0.8"/>
   </g>
   <g id="patch_114">
    <path d="M 506.145755 667.694118 
L 524.174012 667.694118 
L 524.174012 583.835294 
L 506.145755 583.835294 
z
" clip-path="url(#p616b1871a1)" style="fill: #b22222; opacity: 0.8"/>
   </g>
   <g id="patch_115">
    <path d="M 524.174012 667.694118 
L 542.202261 667.694118 
L 542.202261 602.470588 
L 524.174012 602.470588 
z
" clip-path="url(#p616b1871a1)" style="fill: #b22222; opacity: 0.8"/>
   </g>
   <g id="patch_116">
    <path d="M 542.202261 667.694118 
L 560.230509 667.694118 
L 560.230509 583.835294 
L 542.202261 583.835294 
z
" clip-path="url(#p616b1871a1)" style="fill: #b22222; opacity: 0.8"/>
   </g>
   <g id="patch_117">
    <path d="M 560.230509 667.694118 
L 578.258758 667.694118 
L 578.258758 574.517647 
L 560.230509 574.517647 
z
" clip-path="url(#p616b1871a1)" style="fill: #b22222; opacity: 0.8"/>
   </g>
   <g id="patch_118">
    <path d="M 578.258758 667.694118 
L 596.287024 667.694118 
L 596.287024 611.788235 
L 578.258758 611.788235 
z
" clip-path="url(#p616b1871a1)" style="fill: #b22222; opacity: 0.8"/>
   </g>
   <g id="patch_119">
    <path d="M 596.287024 667.694118 
L 614.315273 667.694118 
L 614.315273 583.835294 
L 596.287024 583.835294 
z
" clip-path="url(#p616b1871a1)" style="fill: #b22222; opacity: 0.8"/>
   </g>
   <g id="patch_120">
    <path d="M 614.315273 667.694118 
L 632.343522 667.694118 
L 632.343522 588.494118 
L 614.315273 588.494118 
z
" clip-path="url(#p616b1871a1)" style="fill: #b22222; opacity: 0.8"/>
   </g>
   <g id="patch_121">
    <path d="M 632.343522 667.694118 
L 650.37177 667.694118 
L 650.37177 532.588235 
L 632.343522 532.588235 
z
" clip-path="url(#p616b1871a1)" style="fill: #b22222; opacity: 0.8"/>
   </g>
   <g id="patch_122">
    <path d="M 650.37177 667.694118 
L 668.400019 667.694118 
L 668.400019 569.858824 
L 650.37177 569.858824 
z
" clip-path="url(#p616b1871a1)" style="fill: #b22222; opacity: 0.8"/>
   </g>
   <g id="patch_123">
    <path d="M 668.400019 667.694118 
L 686.428285 667.694118 
L 686.428285 551.223529 
L 668.400019 551.223529 
z
" clip-path="url(#p616b1871a1)" style="fill: #b22222; opacity: 0.8"/>
   </g>
   <g id="patch_124">
    <path d="M 686.428285 667.694118 
L 704.456516 667.694118 
L 704.456516 537.247059 
L 686.428285 537.247059 
z
" clip-path="url(#p616b1871a1)" style="fill: #b22222; opacity: 0.8"/>
   </g>
   <g id="patch_125">
    <path d="M 704.456516 667.694118 
L 722.484783 667.694118 
L 722.484783 513.952941 
L 704.456516 513.952941 
z
" clip-path="url(#p616b1871a1)" style="fill: #b22222; opacity: 0.8"/>
   </g>
   <g id="PolyCollection_5">
    <defs>
     <path id="m24723912d4" d="M 360.391304 -584.682353 
L 360.391304 -468.211765 
L 379.544622 -468.211765 
L 398.697941 -468.211765 
L 417.851259 -468.211765 
L 437.004577 -468.211765 
L 456.157895 -468.211765 
L 475.311213 -468.211765 
L 494.464531 -468.211765 
L 513.617849 -468.211765 
L 532.771167 -468.211765 
L 551.924485 -468.211765 
L 571.077803 -468.211765 
L 590.231121 -468.211765 
L 609.384439 -468.211765 
L 628.537757 -468.211765 
L 647.691076 -468.211765 
L 666.844394 -468.211765 
L 685.997712 -468.211765 
L 705.15103 -468.211765 
L 724.304348 -468.211765 
L 724.304348 -584.682353 
L 724.304348 -584.682353 
L 705.15103 -584.682353 
L 685.997712 -584.682353 
L 666.844394 -584.682353 
L 647.691076 -584.682353 
L 628.537757 -584.682353 
L 609.384439 -584.682353 
L 590.231121 -584.682353 
L 571.077803 -584.682353 
L 551.924485 -584.682353 
L 532.771167 -584.682353 
L 513.617849 -584.682353 
L 494.464531 -584.682353 
L 475.311213 -584.682353 
L 456.157895 -584.682353 
L 437.004577 -584.682353 
L 417.851259 -584.682353 
L 398.697941 -584.682353 
L 379.544622 -584.682353 
L 360.391304 -584.682353 
z
" style="stroke: #808080; stroke-opacity: 0.3"/>
    </defs>
    <g clip-path="url(#p616b1871a1)">
     <use xlink:href="#m24723912d4" x="0" y="1080" style="fill: #808080; fill-opacity: 0.3; stroke: #808080; stroke-opacity: 0.3"/>
    </g>
   </g>
   <g id="matplotlib.axis_9">
    <g id="xtick_13">
     <g id="line2d_13">
      <g>
       <use xlink:href="#m7f60092319" x="360.391304" y="667.694118" style="stroke: #000000; stroke-width: 0.8"/>
      </g>
     </g>
     <g id="text_19">
      <!-- 0 -->
      <g transform="translate(357.210054 682.292555) scale(0.1 -0.1)">
       <use xlink:href="#DejaVuSans-30"/>
      </g>
     </g>
    </g>
    <g id="xtick_14">
     <g id="line2d_14">
      <g>
       <use xlink:href="#m7f60092319" x="542.347826" y="667.694118" style="stroke: #000000; stroke-width: 0.8"/>
      </g>
     </g>
     <g id="text_20">
      <!-- 5000 -->
      <g transform="translate(529.622826 682.292555) scale(0.1 -0.1)">
       <use xlink:href="#DejaVuSans-35"/>
       <use xlink:href="#DejaVuSans-30" x="63.623047"/>
       <use xlink:href="#DejaVuSans-30" x="127.246094"/>
       <use xlink:href="#DejaVuSans-30" x="190.869141"/>
      </g>
     </g>
    </g>
    <g id="xtick_15">
     <g id="line2d_15">
      <g>
       <use xlink:href="#m7f60092319" x="724.304348" y="667.694118" style="stroke: #000000; stroke-width: 0.8"/>
      </g>
     </g>
     <g id="text_21">
      <!-- 10000 -->
      <g transform="translate(708.398098 682.292555) scale(0.1 -0.1)">
       <use xlink:href="#DejaVuSans-31"/>
       <use xlink:href="#DejaVuSans-30" x="63.623047"/>
       <use xlink:href="#DejaVuSans-30" x="127.246094"/>
       <use xlink:href="#DejaVuSans-30" x="190.869141"/>
       <use xlink:href="#DejaVuSans-30" x="254.492188"/>
      </g>
     </g>
    </g>
    <g id="text_22">
     <!-- Innovation p -->
     <g transform="translate(511.111889 695.97068) scale(0.1 -0.1)">
      <defs>
       <path id="DejaVuSans-76" d="M 191 3500 
L 800 3500 
L 1894 563 
L 2988 3500 
L 3597 3500 
L 2284 0 
L 1503 0 
L 191 3500 
z
" transform="scale(0.015625)"/>
      </defs>
      <use xlink:href="#DejaVuSans-49"/>
      <use xlink:href="#DejaVuSans-6e" x="29.492188"/>
      <use xlink:href="#DejaVuSans-6e" x="92.871094"/>
      <use xlink:href="#DejaVuSans-6f" x="156.25"/>
      <use xlink:href="#DejaVuSans-76" x="217.431641"/>
      <use xlink:href="#DejaVuSans-61" x="276.611328"/>
      <use xlink:href="#DejaVuSans-74" x="337.890625"/>
      <use xlink:href="#DejaVuSans-69" x="377.099609"/>
      <use xlink:href="#DejaVuSans-6f" x="404.882812"/>
      <use xlink:href="#DejaVuSans-6e" x="466.064453"/>
      <use xlink:href="#DejaVuSans-20" x="529.443359"/>
      <use xlink:href="#DejaVuSans-70" x="561.230469"/>
     </g>
    </g>
   </g>
   <g id="matplotlib.axis_10"/>
   <g id="patch_126">
    <path d="M 324 667.694118 
L 324 423.105882 
" style="fill: none; stroke: #000000; stroke-width: 0.8; stroke-linejoin: miter; stroke-linecap: square"/>
   </g>
   <g id="patch_127">
    <path d="M 760.695652 667.694118 
L 760.695652 423.105882 
" style="fill: none; stroke: #000000; stroke-width: 0.8; stroke-linejoin: miter; stroke-linecap: square"/>
   </g>
   <g id="patch_128">
    <path d="M 324 667.694118 
L 760.695652 667.694118 
" style="fill: none; stroke: #000000; stroke-width: 0.8; stroke-linejoin: miter; stroke-linecap: square"/>
   </g>
   <g id="patch_129">
    <path d="M 324 423.105882 
L 760.695652 423.105882 
" style="fill: none; stroke: #000000; stroke-width: 0.8; stroke-linejoin: miter; stroke-linecap: square"/>
   </g>
  </g>
  <g id="axes_6">
   <g id="patch_130">
    <path d="M 848.034783 667.694118 
L 1284.730435 667.694118 
L 1284.730435 423.105882 
L 848.034783 423.105882 
z
" style="fill: #ffffff"/>
   </g>
   <g id="patch_131">
    <path d="M 905.642217 667.694118 
L 922.700641 667.694118 
L 922.700641 630.913932 
L 905.642217 630.913932 
z
" clip-path="url(#pcc5cf43da1)" style="fill: #b22222; opacity: 0.8"/>
   </g>
   <g id="patch_132">
    <path d="M 922.700641 667.694118 
L 939.759065 667.694118 
L 939.759065 615.588854 
L 922.700641 615.588854 
z
" clip-path="url(#pcc5cf43da1)" style="fill: #b22222; opacity: 0.8"/>
   </g>
   <g id="patch_133">
    <path d="M 939.759065 667.694118 
L 956.817489 667.694118 
L 956.817489 545.093498 
L 939.759065 545.093498 
z
" clip-path="url(#pcc5cf43da1)" style="fill: #b22222; opacity: 0.8"/>
   </g>
   <g id="patch_134">
    <path d="M 956.817489 667.694118 
L 973.875913 667.694118 
L 973.875913 520.573375 
L 956.817489 520.573375 
z
" clip-path="url(#pcc5cf43da1)" style="fill: #b22222; opacity: 0.8"/>
   </g>
   <g id="patch_135">
    <path d="M 973.875913 667.694118 
L 990.934337 667.694118 
L 990.934337 514.443344 
L 973.875913 514.443344 
z
" clip-path="url(#pcc5cf43da1)" style="fill: #b22222; opacity: 0.8"/>
   </g>
   <g id="patch_136">
    <path d="M 990.934337 667.694118 
L 1007.992761 667.694118 
L 1007.992761 591.068731 
L 990.934337 591.068731 
z
" clip-path="url(#pcc5cf43da1)" style="fill: #b22222; opacity: 0.8"/>
   </g>
   <g id="patch_137">
    <path d="M 1007.992761 667.694118 
L 1025.051185 667.694118 
L 1025.051185 615.588854 
L 1007.992761 615.588854 
z
" clip-path="url(#pcc5cf43da1)" style="fill: #b22222; opacity: 0.8"/>
   </g>
   <g id="patch_138">
    <path d="M 1025.051185 667.694118 
L 1042.109609 667.694118 
L 1042.109609 637.043963 
L 1025.051185 637.043963 
z
" clip-path="url(#pcc5cf43da1)" style="fill: #b22222; opacity: 0.8"/>
   </g>
   <g id="patch_139">
    <path d="M 1042.109609 667.694118 
L 1059.168033 667.694118 
L 1059.168033 618.65387 
L 1042.109609 618.65387 
z
" clip-path="url(#pcc5cf43da1)" style="fill: #b22222; opacity: 0.8"/>
   </g>
   <g id="patch_140">
    <path d="M 1059.168033 667.694118 
L 1076.226457 667.694118 
L 1076.226457 640.108978 
L 1059.168033 640.108978 
z
" clip-path="url(#pcc5cf43da1)" style="fill: #b22222; opacity: 0.8"/>
   </g>
   <g id="patch_141">
    <path d="M 1076.226457 667.694118 
L 1093.28488 667.694118 
L 1093.28488 640.108978 
L 1076.226457 640.108978 
z
" clip-path="url(#pcc5cf43da1)" style="fill: #b22222; opacity: 0.8"/>
   </g>
   <g id="patch_142">
    <path d="M 1093.28488 667.694118 
L 1110.343304 667.694118 
L 1110.343304 618.65387 
L 1093.28488 618.65387 
z
" clip-path="url(#pcc5cf43da1)" style="fill: #b22222; opacity: 0.8"/>
   </g>
   <g id="patch_143">
    <path d="M 1110.343304 667.694118 
L 1127.401728 667.694118 
L 1127.401728 618.65387 
L 1110.343304 618.65387 
z
" clip-path="url(#pcc5cf43da1)" style="fill: #b22222; opacity: 0.8"/>
   </g>
   <g id="patch_144">
    <path d="M 1127.401728 667.694118 
L 1144.460152 667.694118 
L 1144.460152 621.718885 
L 1127.401728 621.718885 
z
" clip-path="url(#pcc5cf43da1)" style="fill: #b22222; opacity: 0.8"/>
   </g>
   <g id="patch_145">
    <path d="M 1144.460152 667.694118 
L 1161.518576 667.694118 
L 1161.518576 615.588854 
L 1144.460152 615.588854 
z
" clip-path="url(#pcc5cf43da1)" style="fill: #b22222; opacity: 0.8"/>
   </g>
   <g id="patch_146">
    <path d="M 1161.518576 667.694118 
L 1178.577 667.694118 
L 1178.577 606.393808 
L 1161.518576 606.393808 
z
" clip-path="url(#pcc5cf43da1)" style="fill: #b22222; opacity: 0.8"/>
   </g>
   <g id="patch_147">
    <path d="M 1178.577 667.694118 
L 1195.635424 667.694118 
L 1195.635424 600.263777 
L 1178.577 600.263777 
z
" clip-path="url(#pcc5cf43da1)" style="fill: #b22222; opacity: 0.8"/>
   </g>
   <g id="patch_148">
    <path d="M 1195.635424 667.694118 
L 1212.693848 667.694118 
L 1212.693848 597.198762 
L 1195.635424 597.198762 
z
" clip-path="url(#pcc5cf43da1)" style="fill: #b22222; opacity: 0.8"/>
   </g>
   <g id="patch_149">
    <path d="M 1212.693848 667.694118 
L 1229.752272 667.694118 
L 1229.752272 538.963467 
L 1212.693848 538.963467 
z
" clip-path="url(#pcc5cf43da1)" style="fill: #b22222; opacity: 0.8"/>
   </g>
   <g id="patch_150">
    <path d="M 1229.752272 667.694118 
L 1246.810696 667.694118 
L 1246.810696 434.752941 
L 1229.752272 434.752941 
z
" clip-path="url(#pcc5cf43da1)" style="fill: #b22222; opacity: 0.8"/>
   </g>
   <g id="PolyCollection_6">
    <defs>
     <path id="mf37f5e333e" d="M 884.426087 -525.711455 
L 884.426087 -449.086068 
L 903.579405 -449.086068 
L 922.732723 -449.086068 
L 941.886041 -449.086068 
L 961.039359 -449.086068 
L 980.192677 -449.086068 
L 999.345995 -449.086068 
L 1018.499314 -449.086068 
L 1037.652632 -449.086068 
L 1056.80595 -449.086068 
L 1075.959268 -449.086068 
L 1095.112586 -449.086068 
L 1114.265904 -449.086068 
L 1133.419222 -449.086068 
L 1152.57254 -449.086068 
L 1171.725858 -449.086068 
L 1190.879176 -449.086068 
L 1210.032494 -449.086068 
L 1229.185812 -449.086068 
L 1248.33913 -449.086068 
L 1248.33913 -525.711455 
L 1248.33913 -525.711455 
L 1229.185812 -525.711455 
L 1210.032494 -525.711455 
L 1190.879176 -525.711455 
L 1171.725858 -525.711455 
L 1152.57254 -525.711455 
L 1133.419222 -525.711455 
L 1114.265904 -525.711455 
L 1095.112586 -525.711455 
L 1075.959268 -525.711455 
L 1056.80595 -525.711455 
L 1037.652632 -525.711455 
L 1018.499314 -525.711455 
L 999.345995 -525.711455 
L 980.192677 -525.711455 
L 961.039359 -525.711455 
L 941.886041 -525.711455 
L 922.732723 -525.711455 
L 903.579405 -525.711455 
L 884.426087 -525.711455 
z
" style="stroke: #808080; stroke-opacity: 0.3"/>
    </defs>
    <g clip-path="url(#pcc5cf43da1)">
     <use xlink:href="#mf37f5e333e" x="0" y="1080" style="fill: #808080; fill-opacity: 0.3; stroke: #808080; stroke-opacity: 0.3"/>
    </g>
   </g>
   <g id="matplotlib.axis_11">
    <g id="xtick_16">
     <g id="line2d_16">
      <g>
       <use xlink:href="#m7f60092319" x="884.426087" y="667.694118" style="stroke: #000000; stroke-width: 0.8"/>
      </g>
     </g>
     <g id="text_23">
      <!-- 0 -->
      <g transform="translate(881.244837 682.292555) scale(0.1 -0.1)">
       <use xlink:href="#DejaVuSans-30"/>
      </g>
     </g>
    </g>
    <g id="xtick_17">
     <g id="line2d_17">
      <g>
       <use xlink:href="#m7f60092319" x="1066.382609" y="667.694118" style="stroke: #000000; stroke-width: 0.8"/>
      </g>
     </g>
     <g id="text_24">
      <!-- 5000 -->
      <g transform="translate(1053.657609 682.292555) scale(0.1 -0.1)">
       <use xlink:href="#DejaVuSans-35"/>
       <use xlink:href="#DejaVuSans-30" x="63.623047"/>
       <use xlink:href="#DejaVuSans-30" x="127.246094"/>
       <use xlink:href="#DejaVuSans-30" x="190.869141"/>
      </g>
     </g>
    </g>
    <g id="xtick_18">
     <g id="line2d_18">
      <g>
       <use xlink:href="#m7f60092319" x="1248.33913" y="667.694118" style="stroke: #000000; stroke-width: 0.8"/>
      </g>
     </g>
     <g id="text_25">
      <!-- 10000 -->
      <g transform="translate(1232.43288 682.292555) scale(0.1 -0.1)">
       <use xlink:href="#DejaVuSans-31"/>
       <use xlink:href="#DejaVuSans-30" x="63.623047"/>
       <use xlink:href="#DejaVuSans-30" x="127.246094"/>
       <use xlink:href="#DejaVuSans-30" x="190.869141"/>
       <use xlink:href="#DejaVuSans-30" x="254.492188"/>
      </g>
     </g>
    </g>
    <g id="text_26">
     <!-- SM1 -->
     <g transform="translate(1055.713077 695.97068) scale(0.1 -0.1)">
      <defs>
       <path id="DejaVuSans-53" d="M 3425 4513 
L 3425 3897 
Q 3066 4069 2747 4153 
Q 2428 4238 2131 4238 
Q 1616 4238 1336 4038 
Q 1056 3838 1056 3469 
Q 1056 3159 1242 3001 
Q 1428 2844 1947 2747 
L 2328 2669 
Q 3034 2534 3370 2195 
Q 3706 1856 3706 1288 
Q 3706 609 3251 259 
Q 2797 -91 1919 -91 
Q 1588 -91 1214 -16 
Q 841 59 441 206 
L 441 856 
Q 825 641 1194 531 
Q 1563 422 1919 422 
Q 2459 422 2753 634 
Q 3047 847 3047 1241 
Q 3047 1584 2836 1778 
Q 2625 1972 2144 2069 
L 1759 2144 
Q 1053 2284 737 2584 
Q 422 2884 422 3419 
Q 422 4038 858 4394 
Q 1294 4750 2059 4750 
Q 2388 4750 2728 4690 
Q 3069 4631 3425 4513 
z
" transform="scale(0.015625)"/>
       <path id="DejaVuSans-4d" d="M 628 4666 
L 1569 4666 
L 2759 1491 
L 3956 4666 
L 4897 4666 
L 4897 0 
L 4281 0 
L 4281 4097 
L 3078 897 
L 2444 897 
L 1241 4097 
L 1241 0 
L 628 0 
L 628 4666 
z
" transform="scale(0.015625)"/>
      </defs>
      <use xlink:href="#DejaVuSans-53"/>
      <use xlink:href="#DejaVuSans-4d" x="63.476562"/>
      <use xlink:href="#DejaVuSans-31" x="149.755859"/>
     </g>
    </g>
   </g>
   <g id="matplotlib.axis_12"/>
   <g id="patch_151">
    <path d="M 848.034783 667.694118 
L 848.034783 423.105882 
" style="fill: none; stroke: #000000; stroke-width: 0.8; stroke-linejoin: miter; stroke-linecap: square"/>
   </g>
   <g id="patch_152">
    <path d="M 1284.730435 667.694118 
L 1284.730435 423.105882 
" style="fill: none; stroke: #000000; stroke-width: 0.8; stroke-linejoin: miter; stroke-linecap: square"/>
   </g>
   <g id="patch_153">
    <path d="M 848.034783 667.694118 
L 1284.730435 667.694118 
" style="fill: none; stroke: #000000; stroke-width: 0.8; stroke-linejoin: miter; stroke-linecap: square"/>
   </g>
   <g id="patch_154">
    <path d="M 848.034783 423.105882 
L 1284.730435 423.105882 
" style="fill: none; stroke: #000000; stroke-width: 0.8; stroke-linejoin: miter; stroke-linecap: square"/>
   </g>
  </g>
  <g id="axes_7">
   <g id="patch_155">
    <path d="M 1372.069565 667.694118 
L 1808.765217 667.694118 
L 1808.765217 423.105882 
L 1372.069565 423.105882 
z
" style="fill: #ffffff"/>
   </g>
   <g id="patch_156">
    <path d="M 1412.609478 667.694118 
L 1430.410286 667.694118 
L 1430.410286 446.209065 
L 1412.609478 446.209065 
z
" clip-path="url(#pb3df952d1b)" style="fill: #b22222; opacity: 0.8"/>
   </g>
   <g id="patch_157">
    <path d="M 1430.410286 667.694118 
L 1448.211093 667.694118 
L 1448.211093 499.670974 
L 1430.410286 499.670974 
z
" clip-path="url(#pb3df952d1b)" style="fill: #b22222; opacity: 0.8"/>
   </g>
   <g id="patch_158">
    <path d="M 1448.211093 667.694118 
L 1466.011896 667.694118 
L 1466.011896 579.863838 
L 1448.211093 579.863838 
z
" clip-path="url(#pb3df952d1b)" style="fill: #b22222; opacity: 0.8"/>
   </g>
   <g id="patch_159">
    <path d="M 1466.011896 667.694118 
L 1483.812708 667.694118 
L 1483.812708 568.407715 
L 1466.011896 568.407715 
z
" clip-path="url(#pb3df952d1b)" style="fill: #b22222; opacity: 0.8"/>
   </g>
   <g id="patch_160">
    <path d="M 1483.812708 667.694118 
L 1501.613511 667.694118 
L 1501.613511 602.776085 
L 1483.812708 602.776085 
z
" clip-path="url(#pb3df952d1b)" style="fill: #b22222; opacity: 0.8"/>
   </g>
   <g id="patch_161">
    <path d="M 1501.613511 667.694118 
L 1519.414314 667.694118 
L 1519.414314 587.501254 
L 1501.613511 587.501254 
z
" clip-path="url(#pb3df952d1b)" style="fill: #b22222; opacity: 0.8"/>
   </g>
   <g id="patch_162">
    <path d="M 1519.414314 667.694118 
L 1537.215126 667.694118 
L 1537.215126 579.863838 
L 1519.414314 579.863838 
z
" clip-path="url(#pb3df952d1b)" style="fill: #b22222; opacity: 0.8"/>
   </g>
   <g id="patch_163">
    <path d="M 1537.215126 667.694118 
L 1555.015929 667.694118 
L 1555.015929 629.50704 
L 1537.215126 629.50704 
z
" clip-path="url(#pb3df952d1b)" style="fill: #b22222; opacity: 0.8"/>
   </g>
   <g id="patch_164">
    <path d="M 1555.015929 667.694118 
L 1572.816741 667.694118 
L 1572.816741 606.594793 
L 1555.015929 606.594793 
z
" clip-path="url(#pb3df952d1b)" style="fill: #b22222; opacity: 0.8"/>
   </g>
   <g id="patch_165">
    <path d="M 1572.816741 667.694118 
L 1590.617543 667.694118 
L 1590.617543 614.232208 
L 1572.816741 614.232208 
z
" clip-path="url(#pb3df952d1b)" style="fill: #b22222; opacity: 0.8"/>
   </g>
   <g id="patch_166">
    <path d="M 1590.617543 667.694118 
L 1608.418346 667.694118 
L 1608.418346 610.4135 
L 1590.617543 610.4135 
z
" clip-path="url(#pb3df952d1b)" style="fill: #b22222; opacity: 0.8"/>
   </g>
   <g id="patch_167">
    <path d="M 1608.418346 667.694118 
L 1626.219149 667.694118 
L 1626.219149 629.50704 
L 1608.418346 629.50704 
z
" clip-path="url(#pb3df952d1b)" style="fill: #b22222; opacity: 0.8"/>
   </g>
   <g id="patch_168">
    <path d="M 1626.219149 667.694118 
L 1644.01997 667.694118 
L 1644.01997 610.4135 
L 1626.219149 610.4135 
z
" clip-path="url(#pb3df952d1b)" style="fill: #b22222; opacity: 0.8"/>
   </g>
   <g id="patch_169">
    <path d="M 1644.01997 667.694118 
L 1661.820773 667.694118 
L 1661.820773 583.682546 
L 1644.01997 583.682546 
z
" clip-path="url(#pb3df952d1b)" style="fill: #b22222; opacity: 0.8"/>
   </g>
   <g id="patch_170">
    <path d="M 1661.820773 667.694118 
L 1679.621576 667.694118 
L 1679.621576 591.319961 
L 1661.820773 591.319961 
z
" clip-path="url(#pb3df952d1b)" style="fill: #b22222; opacity: 0.8"/>
   </g>
   <g id="patch_171">
    <path d="M 1679.621576 667.694118 
L 1697.422379 667.694118 
L 1697.422379 606.594793 
L 1679.621576 606.594793 
z
" clip-path="url(#pb3df952d1b)" style="fill: #b22222; opacity: 0.8"/>
   </g>
   <g id="patch_172">
    <path d="M 1697.422379 667.694118 
L 1715.223182 667.694118 
L 1715.223182 556.951591 
L 1697.422379 556.951591 
z
" clip-path="url(#pb3df952d1b)" style="fill: #b22222; opacity: 0.8"/>
   </g>
   <g id="patch_173">
    <path d="M 1715.223182 667.694118 
L 1733.024003 667.694118 
L 1733.024003 572.226422 
L 1715.223182 572.226422 
z
" clip-path="url(#pb3df952d1b)" style="fill: #b22222; opacity: 0.8"/>
   </g>
   <g id="patch_174">
    <path d="M 1733.024003 667.694118 
L 1750.824788 667.694118 
L 1750.824788 534.039344 
L 1733.024003 534.039344 
z
" clip-path="url(#pb3df952d1b)" style="fill: #b22222; opacity: 0.8"/>
   </g>
   <g id="patch_175">
    <path d="M 1750.824788 667.694118 
L 1768.625609 667.694118 
L 1768.625609 434.752941 
L 1750.824788 434.752941 
z
" clip-path="url(#pb3df952d1b)" style="fill: #b22222; opacity: 0.8"/>
   </g>
   <g id="PolyCollection_7">
    <defs>
     <path id="m96d9b5b470" d="M 1408.46087 -553.598071 
L 1408.46087 -458.130376 
L 1427.614188 -458.130376 
L 1446.767506 -458.130376 
L 1465.920824 -458.130376 
L 1485.074142 -458.130376 
L 1504.22746 -458.130376 
L 1523.380778 -458.130376 
L 1542.534096 -458.130376 
L 1561.687414 -458.130376 
L 1580.840732 -458.130376 
L 1599.99405 -458.130376 
L 1619.147368 -458.130376 
L 1638.300686 -458.130376 
L 1657.454005 -458.130376 
L 1676.607323 -458.130376 
L 1695.760641 -458.130376 
L 1714.913959 -458.130376 
L 1734.067277 -458.130376 
L 1753.220595 -458.130376 
L 1772.373913 -458.130376 
L 1772.373913 -553.598071 
L 1772.373913 -553.598071 
L 1753.220595 -553.598071 
L 1734.067277 -553.598071 
L 1714.913959 -553.598071 
L 1695.760641 -553.598071 
L 1676.607323 -553.598071 
L 1657.454005 -553.598071 
L 1638.300686 -553.598071 
L 1619.147368 -553.598071 
L 1599.99405 -553.598071 
L 1580.840732 -553.598071 
L 1561.687414 -553.598071 
L 1542.534096 -553.598071 
L 1523.380778 -553.598071 
L 1504.22746 -553.598071 
L 1485.074142 -553.598071 
L 1465.920824 -553.598071 
L 1446.767506 -553.598071 
L 1427.614188 -553.598071 
L 1408.46087 -553.598071 
z
" style="stroke: #808080; stroke-opacity: 0.3"/>
    </defs>
    <g clip-path="url(#pb3df952d1b)">
     <use xlink:href="#m96d9b5b470" x="0" y="1080" style="fill: #808080; fill-opacity: 0.3; stroke: #808080; stroke-opacity: 0.3"/>
    </g>
   </g>
   <g id="matplotlib.axis_13">
    <g id="xtick_19">
     <g id="line2d_19">
      <g>
       <use xlink:href="#m7f60092319" x="1408.46087" y="667.694118" style="stroke: #000000; stroke-width: 0.8"/>
      </g>
     </g>
     <g id="text_27">
      <!-- 0 -->
      <g transform="translate(1405.27962 682.292555) scale(0.1 -0.1)">
       <use xlink:href="#DejaVuSans-30"/>
      </g>
     </g>
    </g>
    <g id="xtick_20">
     <g id="line2d_20">
      <g>
       <use xlink:href="#m7f60092319" x="1590.417391" y="667.694118" style="stroke: #000000; stroke-width: 0.8"/>
      </g>
     </g>
     <g id="text_28">
      <!-- 5000 -->
      <g transform="translate(1577.692391 682.292555) scale(0.1 -0.1)">
       <use xlink:href="#DejaVuSans-35"/>
       <use xlink:href="#DejaVuSans-30" x="63.623047"/>
       <use xlink:href="#DejaVuSans-30" x="127.246094"/>
       <use xlink:href="#DejaVuSans-30" x="190.869141"/>
      </g>
     </g>
    </g>
    <g id="xtick_21">
     <g id="line2d_21">
      <g>
       <use xlink:href="#m7f60092319" x="1772.373913" y="667.694118" style="stroke: #000000; stroke-width: 0.8"/>
      </g>
     </g>
     <g id="text_29">
      <!-- 10000 -->
      <g transform="translate(1756.467663 682.292555) scale(0.1 -0.1)">
       <use xlink:href="#DejaVuSans-31"/>
       <use xlink:href="#DejaVuSans-30" x="63.623047"/>
       <use xlink:href="#DejaVuSans-30" x="127.246094"/>
       <use xlink:href="#DejaVuSans-30" x="190.869141"/>
       <use xlink:href="#DejaVuSans-30" x="254.492188"/>
      </g>
     </g>
    </g>
    <g id="text_30">
     <!-- SM2 -->
     <g transform="translate(1579.74786 695.97068) scale(0.1 -0.1)">
      <use xlink:href="#DejaVuSans-53"/>
      <use xlink:href="#DejaVuSans-4d" x="63.476562"/>
      <use xlink:href="#DejaVuSans-32" x="149.755859"/>
     </g>
    </g>
   </g>
   <g id="matplotlib.axis_14"/>
   <g id="patch_176">
    <path d="M 1372.069565 667.694118 
L 1372.069565 423.105882 
" style="fill: none; stroke: #000000; stroke-width: 0.8; stroke-linejoin: miter; stroke-linecap: square"/>
   </g>
   <g id="patch_177">
    <path d="M 1808.765217 667.694118 
L 1808.765217 423.105882 
" style="fill: none; stroke: #000000; stroke-width: 0.8; stroke-linejoin: miter; stroke-linecap: square"/>
   </g>
   <g id="patch_178">
    <path d="M 1372.069565 667.694118 
L 1808.765217 667.694118 
" style="fill: none; stroke: #000000; stroke-width: 0.8; stroke-linejoin: miter; stroke-linecap: square"/>
   </g>
   <g id="patch_179">
    <path d="M 1372.069565 423.105882 
L 1808.765217 423.105882 
" style="fill: none; stroke: #000000; stroke-width: 0.8; stroke-linejoin: miter; stroke-linecap: square"/>
   </g>
  </g>
  <g id="axes_8">
   <g id="patch_180">
    <path d="M 1896.104348 667.694118 
L 2332.8 667.694118 
L 2332.8 423.105882 
L 1896.104348 423.105882 
z
" style="fill: #ffffff"/>
   </g>
   <g id="patch_181">
    <path d="M 1940.79287 667.694118 
L 1958.135145 667.694118 
L 1958.135145 434.752941 
L 1940.79287 434.752941 
z
" clip-path="url(#p25dbbcc72e)" style="fill: #b22222; opacity: 0.8"/>
   </g>
   <g id="patch_182">
    <path d="M 1958.135145 667.694118 
L 1975.477421 667.694118 
L 1975.477421 517.718292 
L 1958.135145 517.718292 
z
" clip-path="url(#p25dbbcc72e)" style="fill: #b22222; opacity: 0.8"/>
   </g>
   <g id="patch_183">
    <path d="M 1975.477421 667.694118 
L 1992.819699 667.694118 
L 1992.819699 591.110717 
L 1975.477421 591.110717 
z
" clip-path="url(#p25dbbcc72e)" style="fill: #b22222; opacity: 0.8"/>
   </g>
   <g id="patch_184">
    <path d="M 1992.819699 667.694118 
L 2010.161972 667.694118 
L 2010.161972 597.492667 
L 1992.819699 597.492667 
z
" clip-path="url(#p25dbbcc72e)" style="fill: #b22222; opacity: 0.8"/>
   </g>
   <g id="patch_185">
    <path d="M 2010.161972 667.694118 
L 2027.50425 667.694118 
L 2027.50425 619.829492 
L 2010.161972 619.829492 
z
" clip-path="url(#p25dbbcc72e)" style="fill: #b22222; opacity: 0.8"/>
   </g>
   <g id="patch_186">
    <path d="M 2027.50425 667.694118 
L 2044.846528 667.694118 
L 2044.846528 623.020467 
L 2027.50425 623.020467 
z
" clip-path="url(#p25dbbcc72e)" style="fill: #b22222; opacity: 0.8"/>
   </g>
   <g id="patch_187">
    <path d="M 2044.846528 667.694118 
L 2062.188806 667.694118 
L 2062.188806 619.829492 
L 2044.846528 619.829492 
z
" clip-path="url(#p25dbbcc72e)" style="fill: #b22222; opacity: 0.8"/>
   </g>
   <g id="patch_188">
    <path d="M 2062.188806 667.694118 
L 2079.531075 667.694118 
L 2079.531075 626.211442 
L 2062.188806 626.211442 
z
" clip-path="url(#p25dbbcc72e)" style="fill: #b22222; opacity: 0.8"/>
   </g>
   <g id="patch_189">
    <path d="M 2079.531075 667.694118 
L 2096.873361 667.694118 
L 2096.873361 619.829492 
L 2079.531075 619.829492 
z
" clip-path="url(#p25dbbcc72e)" style="fill: #b22222; opacity: 0.8"/>
   </g>
   <g id="patch_190">
    <path d="M 2096.873361 667.694118 
L 2114.21563 667.694118 
L 2114.21563 600.683642 
L 2096.873361 600.683642 
z
" clip-path="url(#p25dbbcc72e)" style="fill: #b22222; opacity: 0.8"/>
   </g>
   <g id="patch_191">
    <path d="M 2114.21563 667.694118 
L 2131.557899 667.694118 
L 2131.557899 619.829492 
L 2114.21563 619.829492 
z
" clip-path="url(#p25dbbcc72e)" style="fill: #b22222; opacity: 0.8"/>
   </g>
   <g id="patch_192">
    <path d="M 2131.557899 667.694118 
L 2148.900186 667.694118 
L 2148.900186 616.638517 
L 2131.557899 616.638517 
z
" clip-path="url(#p25dbbcc72e)" style="fill: #b22222; opacity: 0.8"/>
   </g>
   <g id="patch_193">
    <path d="M 2148.900186 667.694118 
L 2166.242455 667.694118 
L 2166.242455 616.638517 
L 2148.900186 616.638517 
z
" clip-path="url(#p25dbbcc72e)" style="fill: #b22222; opacity: 0.8"/>
   </g>
   <g id="patch_194">
    <path d="M 2166.242455 667.694118 
L 2183.584742 667.694118 
L 2183.584742 626.211442 
L 2166.242455 626.211442 
z
" clip-path="url(#p25dbbcc72e)" style="fill: #b22222; opacity: 0.8"/>
   </g>
   <g id="patch_195">
    <path d="M 2183.584742 667.694118 
L 2200.927011 667.694118 
L 2200.927011 600.683642 
L 2183.584742 600.683642 
z
" clip-path="url(#p25dbbcc72e)" style="fill: #b22222; opacity: 0.8"/>
   </g>
   <g id="patch_196">
    <path d="M 2200.927011 667.694118 
L 2218.26928 667.694118 
L 2218.26928 603.874617 
L 2200.927011 603.874617 
z
" clip-path="url(#p25dbbcc72e)" style="fill: #b22222; opacity: 0.8"/>
   </g>
   <g id="patch_197">
    <path d="M 2218.26928 667.694118 
L 2235.611549 667.694118 
L 2235.611549 597.492667 
L 2218.26928 597.492667 
z
" clip-path="url(#p25dbbcc72e)" style="fill: #b22222; opacity: 0.8"/>
   </g>
   <g id="patch_198">
    <path d="M 2235.611549 667.694118 
L 2252.953853 667.694118 
L 2252.953853 600.683642 
L 2235.611549 600.683642 
z
" clip-path="url(#p25dbbcc72e)" style="fill: #b22222; opacity: 0.8"/>
   </g>
   <g id="patch_199">
    <path d="M 2252.953853 667.694118 
L 2270.296122 667.694118 
L 2270.296122 540.055117 
L 2252.953853 540.055117 
z
" clip-path="url(#p25dbbcc72e)" style="fill: #b22222; opacity: 0.8"/>
   </g>
   <g id="patch_200">
    <path d="M 2270.296122 667.694118 
L 2287.638391 667.694118 
L 2287.638391 485.808541 
L 2270.296122 485.808541 
z
" clip-path="url(#p25dbbcc72e)" style="fill: #b22222; opacity: 0.8"/>
   </g>
   <g id="PolyCollection_8">
    <defs>
     <path id="md109c462b9" d="M 1932.495652 -530.371958 
L 1932.495652 -450.597583 
L 1951.64897 -450.597583 
L 1970.802288 -450.597583 
L 1989.955606 -450.597583 
L 2009.108924 -450.597583 
L 2028.262243 -450.597583 
L 2047.415561 -450.597583 
L 2066.568879 -450.597583 
L 2085.722197 -450.597583 
L 2104.875515 -450.597583 
L 2124.028833 -450.597583 
L 2143.182151 -450.597583 
L 2162.335469 -450.597583 
L 2181.488787 -450.597583 
L 2200.642105 -450.597583 
L 2219.795423 -450.597583 
L 2238.948741 -450.597583 
L 2258.102059 -450.597583 
L 2277.255378 -450.597583 
L 2296.408696 -450.597583 
L 2296.408696 -530.371958 
L 2296.408696 -530.371958 
L 2277.255378 -530.371958 
L 2258.102059 -530.371958 
L 2238.948741 -530.371958 
L 2219.795423 -530.371958 
L 2200.642105 -530.371958 
L 2181.488787 -530.371958 
L 2162.335469 -530.371958 
L 2143.182151 -530.371958 
L 2124.028833 -530.371958 
L 2104.875515 -530.371958 
L 2085.722197 -530.371958 
L 2066.568879 -530.371958 
L 2047.415561 -530.371958 
L 2028.262243 -530.371958 
L 2009.108924 -530.371958 
L 1989.955606 -530.371958 
L 1970.802288 -530.371958 
L 1951.64897 -530.371958 
L 1932.495652 -530.371958 
z
" style="stroke: #808080; stroke-opacity: 0.3"/>
    </defs>
    <g clip-path="url(#p25dbbcc72e)">
     <use xlink:href="#md109c462b9" x="0" y="1080" style="fill: #808080; fill-opacity: 0.3; stroke: #808080; stroke-opacity: 0.3"/>
    </g>
   </g>
   <g id="matplotlib.axis_15">
    <g id="xtick_22">
     <g id="line2d_22">
      <g>
       <use xlink:href="#m7f60092319" x="1932.495652" y="667.694118" style="stroke: #000000; stroke-width: 0.8"/>
      </g>
     </g>
     <g id="text_31">
      <!-- 0 -->
      <g transform="translate(1929.314402 682.292555) scale(0.1 -0.1)">
       <use xlink:href="#DejaVuSans-30"/>
      </g>
     </g>
    </g>
    <g id="xtick_23">
     <g id="line2d_23">
      <g>
       <use xlink:href="#m7f60092319" x="2114.452174" y="667.694118" style="stroke: #000000; stroke-width: 0.8"/>
      </g>
     </g>
     <g id="text_32">
      <!-- 5000 -->
      <g transform="translate(2101.727174 682.292555) scale(0.1 -0.1)">
       <use xlink:href="#DejaVuSans-35"/>
       <use xlink:href="#DejaVuSans-30" x="63.623047"/>
       <use xlink:href="#DejaVuSans-30" x="127.246094"/>
       <use xlink:href="#DejaVuSans-30" x="190.869141"/>
      </g>
     </g>
    </g>
    <g id="xtick_24">
     <g id="line2d_24">
      <g>
       <use xlink:href="#m7f60092319" x="2296.408696" y="667.694118" style="stroke: #000000; stroke-width: 0.8"/>
      </g>
     </g>
     <g id="text_33">
      <!-- 10000 -->
      <g transform="translate(2280.502446 682.292555) scale(0.1 -0.1)">
       <use xlink:href="#DejaVuSans-31"/>
       <use xlink:href="#DejaVuSans-30" x="63.623047"/>
       <use xlink:href="#DejaVuSans-30" x="127.246094"/>
       <use xlink:href="#DejaVuSans-30" x="190.869141"/>
       <use xlink:href="#DejaVuSans-30" x="254.492188"/>
      </g>
     </g>
    </g>
    <g id="text_34">
     <!-- sp1 -->
     <g transform="translate(2105.492018 695.97068) scale(0.1 -0.1)">
      <use xlink:href="#DejaVuSans-73"/>
      <use xlink:href="#DejaVuSans-70" x="52.099609"/>
      <use xlink:href="#DejaVuSans-31" x="115.576172"/>
     </g>
    </g>
   </g>
   <g id="matplotlib.axis_16"/>
   <g id="patch_201">
    <path d="M 1896.104348 667.694118 
L 1896.104348 423.105882 
" style="fill: none; stroke: #000000; stroke-width: 0.8; stroke-linejoin: miter; stroke-linecap: square"/>
   </g>
   <g id="patch_202">
    <path d="M 2332.8 667.694118 
L 2332.8 423.105882 
" style="fill: none; stroke: #000000; stroke-width: 0.8; stroke-linejoin: miter; stroke-linecap: square"/>
   </g>
   <g id="patch_203">
    <path d="M 1896.104348 667.694118 
L 2332.8 667.694118 
" style="fill: none; stroke: #000000; stroke-width: 0.8; stroke-linejoin: miter; stroke-linecap: square"/>
   </g>
   <g id="patch_204">
    <path d="M 1896.104348 423.105882 
L 2332.8 423.105882 
" style="fill: none; stroke: #000000; stroke-width: 0.8; stroke-linejoin: miter; stroke-linecap: square"/>
   </g>
  </g>
  <g id="axes_9">
   <g id="patch_205">
    <path d="M 324 961.2 
L 760.695652 961.2 
L 760.695652 716.611765 
L 324 716.611765 
z
" style="fill: #ffffff"/>
   </g>
   <g id="patch_206">
    <path d="M 366.759783 961.2 
L 384.455054 961.2 
L 384.455054 783.886567 
L 366.759783 783.886567 
z
" clip-path="url(#pf555ee4e28)" style="fill: #b22222; opacity: 0.8"/>
   </g>
   <g id="patch_207">
    <path d="M 384.455054 961.2 
L 402.150326 961.2 
L 402.150326 832.560843 
L 384.455054 832.560843 
z
" clip-path="url(#pf555ee4e28)" style="fill: #b22222; opacity: 0.8"/>
   </g>
   <g id="patch_208">
    <path d="M 402.150326 961.2 
L 419.845598 961.2 
L 419.845598 867.328183 
L 402.150326 867.328183 
z
" clip-path="url(#pf555ee4e28)" style="fill: #b22222; opacity: 0.8"/>
   </g>
   <g id="patch_209">
    <path d="M 419.845598 961.2 
L 437.54087 961.2 
L 437.54087 898.618788 
L 419.845598 898.618788 
z
" clip-path="url(#pf555ee4e28)" style="fill: #b22222; opacity: 0.8"/>
   </g>
   <g id="patch_210">
    <path d="M 437.54087 961.2 
L 455.236141 961.2 
L 455.236141 867.328183 
L 437.54087 867.328183 
z
" clip-path="url(#pf555ee4e28)" style="fill: #b22222; opacity: 0.8"/>
   </g>
   <g id="patch_211">
    <path d="M 455.236141 961.2 
L 472.931413 961.2 
L 472.931413 895.142054 
L 455.236141 895.142054 
z
" clip-path="url(#pf555ee4e28)" style="fill: #b22222; opacity: 0.8"/>
   </g>
   <g id="patch_212">
    <path d="M 472.931413 961.2 
L 490.626685 961.2 
L 490.626685 905.572256 
L 472.931413 905.572256 
z
" clip-path="url(#pf555ee4e28)" style="fill: #b22222; opacity: 0.8"/>
   </g>
   <g id="patch_213">
    <path d="M 490.626685 961.2 
L 508.321957 961.2 
L 508.321957 926.43266 
L 490.626685 926.43266 
z
" clip-path="url(#pf555ee4e28)" style="fill: #b22222; opacity: 0.8"/>
   </g>
   <g id="patch_214">
    <path d="M 508.321957 961.2 
L 526.017228 961.2 
L 526.017228 936.862862 
L 508.321957 936.862862 
z
" clip-path="url(#pf555ee4e28)" style="fill: #b22222; opacity: 0.8"/>
   </g>
   <g id="patch_215">
    <path d="M 526.017228 961.2 
L 543.7125 961.2 
L 543.7125 902.095522 
L 526.017228 902.095522 
z
" clip-path="url(#pf555ee4e28)" style="fill: #b22222; opacity: 0.8"/>
   </g>
   <g id="patch_216">
    <path d="M 543.7125 961.2 
L 561.407772 961.2 
L 561.407772 912.525724 
L 543.7125 912.525724 
z
" clip-path="url(#pf555ee4e28)" style="fill: #b22222; opacity: 0.8"/>
   </g>
   <g id="patch_217">
    <path d="M 561.407772 961.2 
L 579.103043 961.2 
L 579.103043 905.572256 
L 561.407772 905.572256 
z
" clip-path="url(#pf555ee4e28)" style="fill: #b22222; opacity: 0.8"/>
   </g>
   <g id="patch_218">
    <path d="M 579.103043 961.2 
L 596.798315 961.2 
L 596.798315 898.618788 
L 579.103043 898.618788 
z
" clip-path="url(#pf555ee4e28)" style="fill: #b22222; opacity: 0.8"/>
   </g>
   <g id="patch_219">
    <path d="M 596.798315 961.2 
L 614.493587 961.2 
L 614.493587 898.618788 
L 596.798315 898.618788 
z
" clip-path="url(#pf555ee4e28)" style="fill: #b22222; opacity: 0.8"/>
   </g>
   <g id="patch_220">
    <path d="M 614.493587 961.2 
L 632.188859 961.2 
L 632.188859 912.525724 
L 614.493587 912.525724 
z
" clip-path="url(#pf555ee4e28)" style="fill: #b22222; opacity: 0.8"/>
   </g>
   <g id="patch_221">
    <path d="M 632.188859 961.2 
L 649.88413 961.2 
L 649.88413 898.618788 
L 632.188859 898.618788 
z
" clip-path="url(#pf555ee4e28)" style="fill: #b22222; opacity: 0.8"/>
   </g>
   <g id="patch_222">
    <path d="M 649.88413 961.2 
L 667.579402 961.2 
L 667.579402 888.188586 
L 649.88413 888.188586 
z
" clip-path="url(#pf555ee4e28)" style="fill: #b22222; opacity: 0.8"/>
   </g>
   <g id="patch_223">
    <path d="M 667.579402 961.2 
L 685.274674 961.2 
L 685.274674 811.700439 
L 667.579402 811.700439 
z
" clip-path="url(#pf555ee4e28)" style="fill: #b22222; opacity: 0.8"/>
   </g>
   <g id="patch_224">
    <path d="M 685.274674 961.2 
L 702.969946 961.2 
L 702.969946 815.177173 
L 685.274674 815.177173 
z
" clip-path="url(#pf555ee4e28)" style="fill: #b22222; opacity: 0.8"/>
   </g>
   <g id="patch_225">
    <path d="M 702.969946 961.2 
L 720.665217 961.2 
L 720.665217 728.258824 
L 702.969946 728.258824 
z
" clip-path="url(#pf555ee4e28)" style="fill: #b22222; opacity: 0.8"/>
   </g>
   <g id="PolyCollection_9">
    <defs>
     <path id="m78102ae532" d="M 360.391304 -247.439157 
L 360.391304 -160.520808 
L 379.544622 -160.520808 
L 398.697941 -160.520808 
L 417.851259 -160.520808 
L 437.004577 -160.520808 
L 456.157895 -160.520808 
L 475.311213 -160.520808 
L 494.464531 -160.520808 
L 513.617849 -160.520808 
L 532.771167 -160.520808 
L 551.924485 -160.520808 
L 571.077803 -160.520808 
L 590.231121 -160.520808 
L 609.384439 -160.520808 
L 628.537757 -160.520808 
L 647.691076 -160.520808 
L 666.844394 -160.520808 
L 685.997712 -160.520808 
L 705.15103 -160.520808 
L 724.304348 -160.520808 
L 724.304348 -247.439157 
L 724.304348 -247.439157 
L 705.15103 -247.439157 
L 685.997712 -247.439157 
L 666.844394 -247.439157 
L 647.691076 -247.439157 
L 628.537757 -247.439157 
L 609.384439 -247.439157 
L 590.231121 -247.439157 
L 571.077803 -247.439157 
L 551.924485 -247.439157 
L 532.771167 -247.439157 
L 513.617849 -247.439157 
L 494.464531 -247.439157 
L 475.311213 -247.439157 
L 456.157895 -247.439157 
L 437.004577 -247.439157 
L 417.851259 -247.439157 
L 398.697941 -247.439157 
L 379.544622 -247.439157 
L 360.391304 -247.439157 
z
" style="stroke: #808080; stroke-opacity: 0.3"/>
    </defs>
    <g clip-path="url(#pf555ee4e28)">
     <use xlink:href="#m78102ae532" x="0" y="1080" style="fill: #808080; fill-opacity: 0.3; stroke: #808080; stroke-opacity: 0.3"/>
    </g>
   </g>
   <g id="matplotlib.axis_17">
    <g id="xtick_25">
     <g id="line2d_25">
      <g>
       <use xlink:href="#m7f60092319" x="360.391304" y="961.2" style="stroke: #000000; stroke-width: 0.8"/>
      </g>
     </g>
     <g id="text_35">
      <!-- 0 -->
      <g transform="translate(357.210054 975.798437) scale(0.1 -0.1)">
       <use xlink:href="#DejaVuSans-30"/>
      </g>
     </g>
    </g>
    <g id="xtick_26">
     <g id="line2d_26">
      <g>
       <use xlink:href="#m7f60092319" x="542.347826" y="961.2" style="stroke: #000000; stroke-width: 0.8"/>
      </g>
     </g>
     <g id="text_36">
      <!-- 5000 -->
      <g transform="translate(529.622826 975.798437) scale(0.1 -0.1)">
       <use xlink:href="#DejaVuSans-35"/>
       <use xlink:href="#DejaVuSans-30" x="63.623047"/>
       <use xlink:href="#DejaVuSans-30" x="127.246094"/>
       <use xlink:href="#DejaVuSans-30" x="190.869141"/>
      </g>
     </g>
    </g>
    <g id="xtick_27">
     <g id="line2d_27">
      <g>
       <use xlink:href="#m7f60092319" x="724.304348" y="961.2" style="stroke: #000000; stroke-width: 0.8"/>
      </g>
     </g>
     <g id="text_37">
      <!-- 10000 -->
      <g transform="translate(708.398098 975.798437) scale(0.1 -0.1)">
       <use xlink:href="#DejaVuSans-31"/>
       <use xlink:href="#DejaVuSans-30" x="63.623047"/>
       <use xlink:href="#DejaVuSans-30" x="127.246094"/>
       <use xlink:href="#DejaVuSans-30" x="190.869141"/>
       <use xlink:href="#DejaVuSans-30" x="254.492188"/>
      </g>
     </g>
    </g>
    <g id="text_38">
     <!-- tsp1 -->
     <g transform="translate(531.427514 989.476562) scale(0.1 -0.1)">
      <use xlink:href="#DejaVuSans-74"/>
      <use xlink:href="#DejaVuSans-73" x="39.208984"/>
      <use xlink:href="#DejaVuSans-70" x="91.308594"/>
      <use xlink:href="#DejaVuSans-31" x="154.785156"/>
     </g>
    </g>
   </g>
   <g id="matplotlib.axis_18"/>
   <g id="patch_226">
    <path d="M 324 961.2 
L 324 716.611765 
" style="fill: none; stroke: #000000; stroke-width: 0.8; stroke-linejoin: miter; stroke-linecap: square"/>
   </g>
   <g id="patch_227">
    <path d="M 760.695652 961.2 
L 760.695652 716.611765 
" style="fill: none; stroke: #000000; stroke-width: 0.8; stroke-linejoin: miter; stroke-linecap: square"/>
   </g>
   <g id="patch_228">
    <path d="M 324 961.2 
L 760.695652 961.2 
" style="fill: none; stroke: #000000; stroke-width: 0.8; stroke-linejoin: miter; stroke-linecap: square"/>
   </g>
   <g id="patch_229">
    <path d="M 324 716.611765 
L 760.695652 716.611765 
" style="fill: none; stroke: #000000; stroke-width: 0.8; stroke-linejoin: miter; stroke-linecap: square"/>
   </g>
  </g>
  <g id="axes_10"/>
  <g id="axes_11"/>
  <g id="axes_12"/>
 </g>
 <defs>
  <clipPath id="pb1c5f38267">
   <rect x="324" y="129.6" width="436.695652" height="244.588235"/>
  </clipPath>
  <clipPath id="p9b9d132670">
   <rect x="848.034783" y="129.6" width="436.695652" height="244.588235"/>
  </clipPath>
  <clipPath id="p5629b825ac">
   <rect x="1372.069565" y="129.6" width="436.695652" height="244.588235"/>
  </clipPath>
  <clipPath id="pdb517f8537">
   <rect x="1896.104348" y="129.6" width="436.695652" height="244.588235"/>
  </clipPath>
  <clipPath id="p616b1871a1">
   <rect x="324" y="423.105882" width="436.695652" height="244.588235"/>
  </clipPath>
  <clipPath id="pcc5cf43da1">
   <rect x="848.034783" y="423.105882" width="436.695652" height="244.588235"/>
  </clipPath>
  <clipPath id="pb3df952d1b">
   <rect x="1372.069565" y="423.105882" width="436.695652" height="244.588235"/>
  </clipPath>
  <clipPath id="p25dbbcc72e">
   <rect x="1896.104348" y="423.105882" width="436.695652" height="244.588235"/>
  </clipPath>
  <clipPath id="pf555ee4e28">
   <rect x="324" y="716.611765" width="436.695652" height="244.588235"/>
  </clipPath>
 </defs>
</svg>
